<?xml version="1.0" encoding="UTF-8" standalone="no"?>
<svg
   xmlns:dc="http://purl.org/dc/elements/1.1/"
   xmlns:cc="http://creativecommons.org/ns#"
   xmlns:rdf="http://www.w3.org/1999/02/22-rdf-syntax-ns#"
   xmlns:svg="http://www.w3.org/2000/svg"
   xmlns="http://www.w3.org/2000/svg"
   xmlns:sodipodi="http://sodipodi.sourceforge.net/DTD/sodipodi-0.dtd"
   xmlns:inkscape="http://www.inkscape.org/namespaces/inkscape"
   version="1.1"
   width="1000"
   height="1000"
   id="svg2"
   inkscape:version="0.91 r13725"
   sodipodi:docname="koch_curve.svg">
  <metadata
     id="metadata258">
    <rdf:RDF>
      <cc:Work
         rdf:about="">
        <dc:format>image/svg+xml</dc:format>
        <dc:type
           rdf:resource="http://purl.org/dc/dcmitype/StillImage" />
      </cc:Work>
    </rdf:RDF>
  </metadata>
  <defs
     id="defs256" />
  <sodipodi:namedview
     pagecolor="#ffffff"
     bordercolor="#666666"
     borderopacity="1"
     objecttolerance="10"
     gridtolerance="10"
     guidetolerance="10"
     inkscape:pageopacity="0"
     inkscape:pageshadow="2"
     inkscape:window-width="1920"
     inkscape:window-height="1151"
     id="namedview254"
     showgrid="false"
     inkscape:zoom="0.236"
     inkscape:cx="500"
     inkscape:cy="500"
     inkscape:window-x="0"
     inkscape:window-y="0"
     inkscape:window-maximized="1"
     inkscape:current-layer="svg2" />
  <g
     id="g4386"
     transform="matrix(1.1935551,0,0,1.4120188,21.186441,775.25892)">
    <line
       id="line4"
       style="stroke:#000000;stroke-width:0.80000001"
       y2="0"
       x2="30"
       y1="0"
       x1="0" />
    <line
       id="line6"
       style="stroke:#000000;stroke-width:0.80000001"
       y2="-30"
       x2="30"
       y1="0"
       x1="30" />
    <line
       id="line8"
       style="stroke:#000000;stroke-width:0.80000001"
       y2="-30"
       x2="60"
       y1="-30"
       x1="30" />
    <line
       id="line10"
       style="stroke:#000000;stroke-width:0.80000001"
       y2="0"
       x2="60"
       y1="-30"
       x1="60" />
    <line
       id="line12"
       style="stroke:#000000;stroke-width:0.80000001"
       y2="0"
       x2="90"
       y1="0"
       x1="60" />
    <line
       id="line14"
       style="stroke:#000000;stroke-width:0.80000001"
       y2="-30"
       x2="90"
       y1="0"
       x1="90" />
    <line
       id="line16"
       style="stroke:#000000;stroke-width:0.80000001"
       y2="-30"
       x2="60"
       y1="-30"
       x1="90" />
    <line
       id="line18"
       style="stroke:#000000;stroke-width:0.80000001"
       y2="-60"
       x2="60"
       y1="-30"
       x1="60" />
    <line
       id="line20"
       style="stroke:#000000;stroke-width:0.80000001"
       y2="-60"
       x2="90"
       y1="-60"
       x1="60" />
    <line
       id="line22"
       style="stroke:#000000;stroke-width:0.80000001"
       y2="-90"
       x2="90"
       y1="-60"
       x1="90" />
    <line
       id="line24"
       style="stroke:#000000;stroke-width:0.80000001"
       y2="-90"
       x2="120"
       y1="-90"
       x1="90" />
    <line
       id="line26"
       style="stroke:#000000;stroke-width:0.80000001"
       y2="-120"
       x2="120"
       y1="-90"
       x1="120" />
    <line
       id="line28"
       style="stroke:#000000;stroke-width:0.80000001"
       y2="-120"
       x2="150"
       y1="-120"
       x1="120" />
    <line
       id="line30"
       style="stroke:#000000;stroke-width:0.80000001"
       y2="-90"
       x2="150"
       y1="-120"
       x1="150" />
    <line
       id="line32"
       style="stroke:#000000;stroke-width:0.80000001"
       y2="-90"
       x2="180"
       y1="-90"
       x1="150" />
    <line
       id="line34"
       style="stroke:#000000;stroke-width:0.80000001"
       y2="-60"
       x2="180"
       y1="-90"
       x1="180" />
    <line
       id="line36"
       style="stroke:#000000;stroke-width:0.80000001"
       y2="-60"
       x2="210"
       y1="-60"
       x1="180" />
    <line
       id="line38"
       style="stroke:#000000;stroke-width:0.80000001"
       y2="-30"
       x2="210"
       y1="-60"
       x1="210" />
    <line
       id="line40"
       style="stroke:#000000;stroke-width:0.80000001"
       y2="-30"
       x2="180"
       y1="-30"
       x1="210" />
    <line
       id="line42"
       style="stroke:#000000;stroke-width:0.80000001"
       y2="3.5527137e-15"
       x2="180"
       y1="-30"
       x1="180" />
    <line
       id="line44"
       style="stroke:#000000;stroke-width:0.80000001"
       y2="3.5527137e-15"
       x2="210"
       y1="3.5527137e-15"
       x1="180" />
    <line
       id="line46"
       style="stroke:#000000;stroke-width:0.80000001"
       y2="-30"
       x2="210"
       y1="3.5527137e-15"
       x1="210" />
    <line
       id="line48"
       style="stroke:#000000;stroke-width:0.80000001"
       y2="-30"
       x2="240"
       y1="-30"
       x1="210" />
    <line
       id="line50"
       style="stroke:#000000;stroke-width:0.80000001"
       y2="3.5527137e-15"
       x2="240"
       y1="-30"
       x1="240" />
    <line
       id="line52"
       style="stroke:#000000;stroke-width:0.80000001"
       y2="3.5527137e-15"
       x2="270"
       y1="3.5527137e-15"
       x1="240" />
    <line
       id="line54"
       style="stroke:#000000;stroke-width:0.80000001"
       y2="-30"
       x2="270"
       y1="3.5527137e-15"
       x1="270" />
    <line
       id="line56"
       style="stroke:#000000;stroke-width:0.80000001"
       y2="-30"
       x2="240"
       y1="-30"
       x1="270" />
    <line
       id="line58"
       style="stroke:#000000;stroke-width:0.80000001"
       y2="-60"
       x2="240"
       y1="-30"
       x1="240" />
    <line
       id="line60"
       style="stroke:#000000;stroke-width:0.80000001"
       y2="-60"
       x2="270"
       y1="-60"
       x1="240" />
    <line
       id="line62"
       style="stroke:#000000;stroke-width:0.80000001"
       y2="-90"
       x2="270"
       y1="-60"
       x1="270" />
    <line
       id="line64"
       style="stroke:#000000;stroke-width:0.80000001"
       y2="-90"
       x2="240"
       y1="-90"
       x1="270" />
    <line
       id="line66"
       style="stroke:#000000;stroke-width:0.80000001"
       y2="-60"
       x2="240"
       y1="-90"
       x1="240" />
    <line
       id="line68"
       style="stroke:#000000;stroke-width:0.80000001"
       y2="-60"
       x2="210"
       y1="-60"
       x1="240" />
    <line
       id="line70"
       style="stroke:#000000;stroke-width:0.80000001"
       y2="-90"
       x2="210"
       y1="-60"
       x1="210" />
    <line
       id="line72"
       style="stroke:#000000;stroke-width:0.80000001"
       y2="-90"
       x2="180"
       y1="-90"
       x1="210" />
    <line
       id="line74"
       style="stroke:#000000;stroke-width:0.80000001"
       y2="-120"
       x2="180"
       y1="-90"
       x1="180" />
    <line
       id="line76"
       style="stroke:#000000;stroke-width:0.80000001"
       y2="-120"
       x2="150"
       y1="-120"
       x1="180" />
    <line
       id="line78"
       style="stroke:#000000;stroke-width:0.80000001"
       y2="-150"
       x2="150"
       y1="-120"
       x1="150" />
    <line
       id="line80"
       style="stroke:#000000;stroke-width:0.80000001"
       y2="-150"
       x2="180"
       y1="-150"
       x1="150" />
    <line
       id="line82"
       style="stroke:#000000;stroke-width:0.80000001"
       y2="-180"
       x2="180"
       y1="-150"
       x1="180" />
    <line
       id="line84"
       style="stroke:#000000;stroke-width:0.80000001"
       y2="-180"
       x2="210"
       y1="-180"
       x1="180" />
    <line
       id="line86"
       style="stroke:#000000;stroke-width:0.80000001"
       y2="-210"
       x2="210"
       y1="-180"
       x1="210" />
    <line
       id="line88"
       style="stroke:#000000;stroke-width:0.80000001"
       y2="-210"
       x2="240"
       y1="-210"
       x1="210" />
    <line
       id="line90"
       style="stroke:#000000;stroke-width:0.80000001"
       y2="-180"
       x2="240"
       y1="-210"
       x1="240" />
    <line
       id="line92"
       style="stroke:#000000;stroke-width:0.80000001"
       y2="-180"
       x2="270"
       y1="-180"
       x1="240" />
    <line
       id="line94"
       style="stroke:#000000;stroke-width:0.80000001"
       y2="-210"
       x2="270"
       y1="-180"
       x1="270" />
    <line
       id="line96"
       style="stroke:#000000;stroke-width:0.80000001"
       y2="-210"
       x2="240"
       y1="-210"
       x1="270" />
    <line
       id="line98"
       style="stroke:#000000;stroke-width:0.80000001"
       y2="-240"
       x2="240"
       y1="-210"
       x1="240" />
    <line
       id="line100"
       style="stroke:#000000;stroke-width:0.80000001"
       y2="-240"
       x2="270"
       y1="-240"
       x1="240" />
    <line
       id="line102"
       style="stroke:#000000;stroke-width:0.80000001"
       y2="-270"
       x2="270"
       y1="-240"
       x1="270" />
    <line
       id="line104"
       style="stroke:#000000;stroke-width:0.80000001"
       y2="-270"
       x2="300"
       y1="-270"
       x1="270" />
    <line
       id="line106"
       style="stroke:#000000;stroke-width:0.80000001"
       y2="-300"
       x2="300"
       y1="-270"
       x1="300" />
    <line
       id="line108"
       style="stroke:#000000;stroke-width:0.80000001"
       y2="-300"
       x2="330"
       y1="-300"
       x1="300" />
    <line
       id="line110"
       style="stroke:#000000;stroke-width:0.80000001"
       y2="-270"
       x2="330"
       y1="-300"
       x1="330" />
    <line
       id="line112"
       style="stroke:#000000;stroke-width:0.80000001"
       y2="-270"
       x2="360"
       y1="-270"
       x1="330" />
    <line
       id="line114"
       style="stroke:#000000;stroke-width:0.80000001"
       y2="-300"
       x2="360"
       y1="-270"
       x1="360" />
    <line
       id="line116"
       style="stroke:#000000;stroke-width:0.80000001"
       y2="-300"
       x2="330"
       y1="-300"
       x1="360" />
    <line
       id="line118"
       style="stroke:#000000;stroke-width:0.80000001"
       y2="-330"
       x2="330"
       y1="-300"
       x1="330" />
    <line
       id="line120"
       style="stroke:#000000;stroke-width:0.80000001"
       y2="-330"
       x2="360"
       y1="-330"
       x1="330" />
    <line
       id="line122"
       style="stroke:#000000;stroke-width:0.80000001"
       y2="-360"
       x2="360"
       y1="-330"
       x1="360" />
    <line
       id="line124"
       style="stroke:#000000;stroke-width:0.80000001"
       y2="-360"
       x2="390"
       y1="-360"
       x1="360" />
    <line
       id="line126"
       style="stroke:#000000;stroke-width:0.80000001"
       y2="-390"
       x2="390"
       y1="-360"
       x1="390" />
    <line
       id="line128"
       style="stroke:#000000;stroke-width:0.80000001"
       y2="-390"
       x2="420"
       y1="-390"
       x1="390" />
    <line
       id="line130"
       style="stroke:#000000;stroke-width:0.80000001"
       y2="-360"
       x2="420"
       y1="-390"
       x1="420" />
    <line
       id="line132"
       style="stroke:#000000;stroke-width:0.80000001"
       y2="-360"
       x2="450"
       y1="-360"
       x1="420" />
    <line
       id="line134"
       style="stroke:#000000;stroke-width:0.80000001"
       y2="-330"
       x2="450"
       y1="-360"
       x1="450" />
    <line
       id="line136"
       style="stroke:#000000;stroke-width:0.80000001"
       y2="-330"
       x2="480"
       y1="-330"
       x1="450" />
    <line
       id="line138"
       style="stroke:#000000;stroke-width:0.80000001"
       y2="-300"
       x2="480"
       y1="-330"
       x1="480" />
    <line
       id="line140"
       style="stroke:#000000;stroke-width:0.80000001"
       y2="-300"
       x2="450"
       y1="-300"
       x1="480" />
    <line
       id="line142"
       style="stroke:#000000;stroke-width:0.80000001"
       y2="-270"
       x2="450"
       y1="-300"
       x1="450" />
    <line
       id="line144"
       style="stroke:#000000;stroke-width:0.80000001"
       y2="-270"
       x2="480"
       y1="-270"
       x1="450" />
    <line
       id="line146"
       style="stroke:#000000;stroke-width:0.80000001"
       y2="-300"
       x2="480"
       y1="-270"
       x1="480" />
    <line
       id="line148"
       style="stroke:#000000;stroke-width:0.80000001"
       y2="-300"
       x2="510"
       y1="-300"
       x1="480" />
    <line
       id="line150"
       style="stroke:#000000;stroke-width:0.80000001"
       y2="-270"
       x2="510"
       y1="-300"
       x1="510" />
    <line
       id="line152"
       style="stroke:#000000;stroke-width:0.80000001"
       y2="-270"
       x2="540"
       y1="-270"
       x1="510" />
    <line
       id="line154"
       style="stroke:#000000;stroke-width:0.80000001"
       y2="-240"
       x2="540"
       y1="-270"
       x1="540" />
    <line
       id="line156"
       style="stroke:#000000;stroke-width:0.80000001"
       y2="-240"
       x2="570"
       y1="-240"
       x1="540" />
    <line
       id="line158"
       style="stroke:#000000;stroke-width:0.80000001"
       y2="-210"
       x2="570"
       y1="-240"
       x1="570" />
    <line
       id="line160"
       style="stroke:#000000;stroke-width:0.80000001"
       y2="-210"
       x2="540"
       y1="-210"
       x1="570" />
    <line
       id="line162"
       style="stroke:#000000;stroke-width:0.80000001"
       y2="-180"
       x2="540"
       y1="-210"
       x1="540" />
    <line
       id="line164"
       style="stroke:#000000;stroke-width:0.80000001"
       y2="-180"
       x2="570"
       y1="-180"
       x1="540" />
    <line
       id="line166"
       style="stroke:#000000;stroke-width:0.80000001"
       y2="-210"
       x2="570"
       y1="-180"
       x1="570" />
    <line
       id="line168"
       style="stroke:#000000;stroke-width:0.80000001"
       y2="-210"
       x2="600"
       y1="-210"
       x1="570" />
    <line
       id="line170"
       style="stroke:#000000;stroke-width:0.80000001"
       y2="-180"
       x2="600"
       y1="-210"
       x1="600" />
    <line
       id="line172"
       style="stroke:#000000;stroke-width:0.80000001"
       y2="-180"
       x2="630"
       y1="-180"
       x1="600" />
    <line
       id="line174"
       style="stroke:#000000;stroke-width:0.80000001"
       y2="-150"
       x2="630"
       y1="-180"
       x1="630" />
    <line
       id="line176"
       style="stroke:#000000;stroke-width:0.80000001"
       y2="-150"
       x2="660"
       y1="-150"
       x1="630" />
    <line
       id="line178"
       style="stroke:#000000;stroke-width:0.80000001"
       y2="-120"
       x2="660"
       y1="-150"
       x1="660" />
    <line
       id="line180"
       style="stroke:#000000;stroke-width:0.80000001"
       y2="-120"
       x2="630"
       y1="-120"
       x1="660" />
    <line
       id="line182"
       style="stroke:#000000;stroke-width:0.80000001"
       y2="-90"
       x2="630"
       y1="-120"
       x1="630" />
    <line
       id="line184"
       style="stroke:#000000;stroke-width:0.80000001"
       y2="-90"
       x2="600"
       y1="-90"
       x1="630" />
    <line
       id="line186"
       style="stroke:#000000;stroke-width:0.80000001"
       y2="-60"
       x2="600"
       y1="-90"
       x1="600" />
    <line
       id="line188"
       style="stroke:#000000;stroke-width:0.80000001"
       y2="-60"
       x2="570"
       y1="-60"
       x1="600" />
    <line
       id="line190"
       style="stroke:#000000;stroke-width:0.80000001"
       y2="-90"
       x2="570"
       y1="-60"
       x1="570" />
    <line
       id="line192"
       style="stroke:#000000;stroke-width:0.80000001"
       y2="-90"
       x2="540"
       y1="-90"
       x1="570" />
    <line
       id="line194"
       style="stroke:#000000;stroke-width:0.80000001"
       y2="-60"
       x2="540"
       y1="-90"
       x1="540" />
    <line
       id="line196"
       style="stroke:#000000;stroke-width:0.80000001"
       y2="-60"
       x2="570"
       y1="-60"
       x1="540" />
    <line
       id="line198"
       style="stroke:#000000;stroke-width:0.80000001"
       y2="-30"
       x2="570"
       y1="-60"
       x1="570" />
    <line
       id="line200"
       style="stroke:#000000;stroke-width:0.80000001"
       y2="-30"
       x2="540"
       y1="-30"
       x1="570" />
    <line
       id="line202"
       style="stroke:#000000;stroke-width:0.80000001"
       y2="3.5527137e-15"
       x2="540"
       y1="-30"
       x1="540" />
    <line
       id="line204"
       style="stroke:#000000;stroke-width:0.80000001"
       y2="3.5527137e-15"
       x2="570"
       y1="3.5527137e-15"
       x1="540" />
    <line
       id="line206"
       style="stroke:#000000;stroke-width:0.80000001"
       y2="-30"
       x2="570"
       y1="3.5527137e-15"
       x1="570" />
    <line
       id="line208"
       style="stroke:#000000;stroke-width:0.80000001"
       y2="-30"
       x2="600"
       y1="-30"
       x1="570" />
    <line
       id="line210"
       style="stroke:#000000;stroke-width:0.80000001"
       y2="3.5527137e-15"
       x2="600"
       y1="-30"
       x1="600" />
    <line
       id="line212"
       style="stroke:#000000;stroke-width:0.80000001"
       y2="3.5527137e-15"
       x2="630"
       y1="3.5527137e-15"
       x1="600" />
    <line
       id="line214"
       style="stroke:#000000;stroke-width:0.80000001"
       y2="-30"
       x2="630"
       y1="3.5527137e-15"
       x1="630" />
    <line
       id="line216"
       style="stroke:#000000;stroke-width:0.80000001"
       y2="-30"
       x2="600"
       y1="-30"
       x1="630" />
    <line
       id="line218"
       style="stroke:#000000;stroke-width:0.80000001"
       y2="-60"
       x2="600"
       y1="-30"
       x1="600" />
    <line
       id="line220"
       style="stroke:#000000;stroke-width:0.80000001"
       y2="-60"
       x2="630"
       y1="-60"
       x1="600" />
    <line
       id="line222"
       style="stroke:#000000;stroke-width:0.80000001"
       y2="-90"
       x2="630"
       y1="-60"
       x1="630" />
    <line
       id="line224"
       style="stroke:#000000;stroke-width:0.80000001"
       y2="-90"
       x2="660"
       y1="-90"
       x1="630" />
    <line
       id="line226"
       style="stroke:#000000;stroke-width:0.80000001"
       y2="-120"
       x2="660"
       y1="-90"
       x1="660" />
    <line
       id="line228"
       style="stroke:#000000;stroke-width:0.80000001"
       y2="-120"
       x2="690"
       y1="-120"
       x1="660" />
    <line
       id="line230"
       style="stroke:#000000;stroke-width:0.80000001"
       y2="-90"
       x2="690"
       y1="-120"
       x1="690" />
    <line
       id="line232"
       style="stroke:#000000;stroke-width:0.80000001"
       y2="-90"
       x2="720"
       y1="-90"
       x1="690" />
    <line
       id="line234"
       style="stroke:#000000;stroke-width:0.80000001"
       y2="-60"
       x2="720"
       y1="-90"
       x1="720" />
    <line
       id="line236"
       style="stroke:#000000;stroke-width:0.80000001"
       y2="-60"
       x2="750"
       y1="-60"
       x1="720" />
    <line
       id="line238"
       style="stroke:#000000;stroke-width:0.80000001"
       y2="-30"
       x2="750"
       y1="-60"
       x1="750" />
    <line
       id="line240"
       style="stroke:#000000;stroke-width:0.80000001"
       y2="-30"
       x2="720"
       y1="-30"
       x1="750" />
    <line
       id="line242"
       style="stroke:#000000;stroke-width:0.80000001"
       y2="3.5527137e-15"
       x2="720"
       y1="-30"
       x1="720" />
    <line
       id="line244"
       style="stroke:#000000;stroke-width:0.80000001"
       y2="3.5527137e-15"
       x2="750"
       y1="3.5527137e-15"
       x1="720" />
    <line
       id="line246"
       style="stroke:#000000;stroke-width:0.80000001"
       y2="-30"
       x2="750"
       y1="3.5527137e-15"
       x1="750" />
    <line
       id="line248"
       style="stroke:#000000;stroke-width:0.80000001"
       y2="-30"
       x2="780"
       y1="-30"
       x1="750" />
    <line
       id="line250"
       style="stroke:#000000;stroke-width:0.80000001"
       y2="3.5527137e-15"
       x2="780"
       y1="-30"
       x1="780" />
    <line
       id="line252"
       style="stroke:#000000;stroke-width:0.80000001"
       y2="3.5527137e-15"
       x2="810"
       y1="3.5527137e-15"
       x1="780" />
  </g>
</svg>
