<?xml version="1.0" encoding="UTF-8" standalone="no"?>
<!DOCTYPE svg PUBLIC "-//W3C//DTD SVG 1.1//EN" "http://www.w3.org/Graphics/SVG/1.1/DTD/svg11.dtd">
<svg xmlns="http://www.w3.org/2000/svg" version="1.1" width="1000" height="1000">
<line x1="0" y1="0" x2="-5.510910596163089e-15" y2="-30.0" style="stroke:black;stroke-width:0.8"/>
<line x1="-5.510910596163089e-15" y1="-30.0" x2="-1.1021821192326178e-14" y2="-60.0" style="stroke:black;stroke-width:0.8"/>
<line x1="-1.1021821192326178e-14" y1="-60.0" x2="-1.6532731788489267e-14" y2="-90.0" style="stroke:black;stroke-width:0.8"/>
<line x1="-1.6532731788489267e-14" y1="-90.0" x2="-2.2043642384652355e-14" y2="-120.0" style="stroke:black;stroke-width:0.8"/>
<line x1="-2.2043642384652355e-14" y1="-120.0" x2="-2.7554552980815443e-14" y2="-150.0" style="stroke:black;stroke-width:0.8"/>
<line x1="-2.7554552980815443e-14" y1="-150.0" x2="-3.3065463576978534e-14" y2="-180.0" style="stroke:black;stroke-width:0.8"/>
<line x1="-3.3065463576978534e-14" y1="-180.0" x2="-3.857637417314162e-14" y2="-210.0" style="stroke:black;stroke-width:0.8"/>
<line x1="-3.857637417314162e-14" y1="-210.0" x2="-4.408728476930471e-14" y2="-240.0" style="stroke:black;stroke-width:0.8"/>
<line x1="-4.408728476930471e-14" y1="-240.0" x2="-4.95981953654678e-14" y2="-270.0" style="stroke:black;stroke-width:0.8"/>
<line x1="-4.95981953654678e-14" y1="-270.0" x2="-5.5109105961630886e-14" y2="-300.0" style="stroke:black;stroke-width:0.8"/>
<line x1="-5.5109105961630886e-14" y1="-300.0" x2="-6.062001655779397e-14" y2="-330.0" style="stroke:black;stroke-width:0.8"/>
<line x1="-6.062001655779397e-14" y1="-330.0" x2="-6.613092715395707e-14" y2="-360.0" style="stroke:black;stroke-width:0.8"/>
<line x1="-6.613092715395707e-14" y1="-360.0" x2="-7.164183775012016e-14" y2="-390.0" style="stroke:black;stroke-width:0.8"/>
<line x1="-7.164183775012016e-14" y1="-390.0" x2="-7.715274834628326e-14" y2="-420.0" style="stroke:black;stroke-width:0.8"/>
<line x1="-7.715274834628326e-14" y1="-420.0" x2="-8.266365894244635e-14" y2="-450.0" style="stroke:black;stroke-width:0.8"/>
<line x1="-8.266365894244635e-14" y1="-450.0" x2="-8.817456953860945e-14" y2="-480.0" style="stroke:black;stroke-width:0.8"/>
<line x1="-8.817456953860945e-14" y1="-480.0" x2="21.21320343559633" y2="-501.2132034355964" style="stroke:black;stroke-width:0.8"/>
<line x1="21.21320343559633" y1="-501.2132034355964" x2="42.426406871192754" y2="-522.4264068711929" style="stroke:black;stroke-width:0.8"/>
<line x1="42.426406871192754" y1="-522.4264068711929" x2="63.63961030678917" y2="-543.6396103067893" style="stroke:black;stroke-width:0.8"/>
<line x1="63.63961030678917" y1="-543.6396103067893" x2="84.85281374238559" y2="-564.8528137423858" style="stroke:black;stroke-width:0.8"/>
<line x1="84.85281374238559" y1="-564.8528137423858" x2="106.06601717798202" y2="-586.0660171779823" style="stroke:black;stroke-width:0.8"/>
<line x1="106.06601717798202" y1="-586.0660171779823" x2="127.27922061357845" y2="-607.2792206135788" style="stroke:black;stroke-width:0.8"/>
<line x1="127.27922061357845" y1="-607.2792206135788" x2="148.49242404917487" y2="-628.4924240491753" style="stroke:black;stroke-width:0.8"/>
<line x1="148.49242404917487" y1="-628.4924240491753" x2="169.7056274847713" y2="-649.7056274847718" style="stroke:black;stroke-width:0.8"/>
<line x1="169.7056274847713" y1="-649.7056274847718" x2="199.7056274847713" y2="-649.7056274847718" style="stroke:black;stroke-width:0.8"/>
<line x1="199.7056274847713" y1="-649.7056274847718" x2="229.7056274847713" y2="-649.7056274847718" style="stroke:black;stroke-width:0.8"/>
<line x1="229.7056274847713" y1="-649.7056274847718" x2="259.7056274847713" y2="-649.7056274847718" style="stroke:black;stroke-width:0.8"/>
<line x1="259.7056274847713" y1="-649.7056274847718" x2="289.7056274847713" y2="-649.7056274847718" style="stroke:black;stroke-width:0.8"/>
<line x1="289.7056274847713" y1="-649.7056274847718" x2="310.9188309203677" y2="-628.4924240491754" style="stroke:black;stroke-width:0.8"/>
<line x1="310.9188309203677" y1="-628.4924240491754" x2="332.13203435596415" y2="-607.279220613579" style="stroke:black;stroke-width:0.8"/>
<line x1="332.13203435596415" y1="-607.279220613579" x2="332.13203435596415" y2="-577.279220613579" style="stroke:black;stroke-width:0.8"/>
<line x1="332.13203435596415" y1="-577.279220613579" x2="310.9188309203677" y2="-556.0660171779825" style="stroke:black;stroke-width:0.8"/>
<line x1="332.13203435596415" y1="-577.279220613579" x2="353.3452377915606" y2="-556.0660171779826" style="stroke:black;stroke-width:0.8"/>
<line x1="332.13203435596415" y1="-607.279220613579" x2="362.13203435596415" y2="-607.279220613579" style="stroke:black;stroke-width:0.8"/>
<line x1="362.13203435596415" y1="-607.279220613579" x2="383.3452377915606" y2="-586.0660171779826" style="stroke:black;stroke-width:0.8"/>
<line x1="362.13203435596415" y1="-607.279220613579" x2="383.3452377915606" y2="-628.4924240491755" style="stroke:black;stroke-width:0.8"/>
<line x1="289.7056274847713" y1="-649.7056274847718" x2="310.9188309203677" y2="-670.9188309203682" style="stroke:black;stroke-width:0.8"/>
<line x1="310.9188309203677" y1="-670.9188309203682" x2="332.13203435596415" y2="-692.1320343559647" style="stroke:black;stroke-width:0.8"/>
<line x1="332.13203435596415" y1="-692.1320343559647" x2="362.13203435596415" y2="-692.1320343559647" style="stroke:black;stroke-width:0.8"/>
<line x1="362.13203435596415" y1="-692.1320343559647" x2="383.3452377915606" y2="-670.9188309203684" style="stroke:black;stroke-width:0.8"/>
<line x1="362.13203435596415" y1="-692.1320343559647" x2="383.3452377915606" y2="-713.3452377915612" style="stroke:black;stroke-width:0.8"/>
<line x1="332.13203435596415" y1="-692.1320343559647" x2="332.13203435596415" y2="-722.1320343559647" style="stroke:black;stroke-width:0.8"/>
<line x1="332.13203435596415" y1="-722.1320343559647" x2="353.3452377915606" y2="-743.3452377915612" style="stroke:black;stroke-width:0.8"/>
<line x1="332.13203435596415" y1="-722.1320343559647" x2="310.9188309203677" y2="-743.3452377915611" style="stroke:black;stroke-width:0.8"/>
<line x1="169.7056274847713" y1="-649.7056274847718" x2="169.7056274847713" y2="-679.7056274847718" style="stroke:black;stroke-width:0.8"/>
<line x1="169.7056274847713" y1="-679.7056274847718" x2="169.7056274847713" y2="-709.7056274847718" style="stroke:black;stroke-width:0.8"/>
<line x1="169.7056274847713" y1="-709.7056274847718" x2="169.7056274847713" y2="-739.7056274847718" style="stroke:black;stroke-width:0.8"/>
<line x1="169.7056274847713" y1="-739.7056274847718" x2="169.7056274847713" y2="-769.7056274847718" style="stroke:black;stroke-width:0.8"/>
<line x1="169.7056274847713" y1="-769.7056274847718" x2="190.91883092036772" y2="-790.9188309203682" style="stroke:black;stroke-width:0.8"/>
<line x1="190.91883092036772" y1="-790.9188309203682" x2="212.13203435596415" y2="-812.1320343559647" style="stroke:black;stroke-width:0.8"/>
<line x1="212.13203435596415" y1="-812.1320343559647" x2="242.13203435596415" y2="-812.1320343559647" style="stroke:black;stroke-width:0.8"/>
<line x1="242.13203435596415" y1="-812.1320343559647" x2="263.3452377915606" y2="-790.9188309203684" style="stroke:black;stroke-width:0.8"/>
<line x1="242.13203435596415" y1="-812.1320343559647" x2="263.3452377915606" y2="-833.3452377915612" style="stroke:black;stroke-width:0.8"/>
<line x1="212.13203435596415" y1="-812.1320343559647" x2="212.13203435596415" y2="-842.1320343559647" style="stroke:black;stroke-width:0.8"/>
<line x1="212.13203435596415" y1="-842.1320343559647" x2="233.34523779156058" y2="-863.3452377915612" style="stroke:black;stroke-width:0.8"/>
<line x1="212.13203435596415" y1="-842.1320343559647" x2="190.91883092036772" y2="-863.3452377915611" style="stroke:black;stroke-width:0.8"/>
<line x1="169.7056274847713" y1="-769.7056274847718" x2="148.49242404917487" y2="-790.9188309203681" style="stroke:black;stroke-width:0.8"/>
<line x1="148.49242404917487" y1="-790.9188309203681" x2="127.27922061357845" y2="-812.1320343559645" style="stroke:black;stroke-width:0.8"/>
<line x1="127.27922061357845" y1="-812.1320343559645" x2="127.27922061357845" y2="-842.1320343559645" style="stroke:black;stroke-width:0.8"/>
<line x1="127.27922061357845" y1="-842.1320343559645" x2="148.49242404917487" y2="-863.345237791561" style="stroke:black;stroke-width:0.8"/>
<line x1="127.27922061357845" y1="-842.1320343559645" x2="106.06601717798202" y2="-863.3452377915609" style="stroke:black;stroke-width:0.8"/>
<line x1="127.27922061357845" y1="-812.1320343559645" x2="97.27922061357845" y2="-812.1320343559645" style="stroke:black;stroke-width:0.8"/>
<line x1="97.27922061357845" y1="-812.1320343559645" x2="76.06601717798202" y2="-833.3452377915609" style="stroke:black;stroke-width:0.8"/>
<line x1="97.27922061357845" y1="-812.1320343559645" x2="76.06601717798202" y2="-790.918830920368" style="stroke:black;stroke-width:0.8"/>
<line x1="-8.817456953860945e-14" y1="-480.0" x2="-21.21320343559652" y2="-501.2132034355964" style="stroke:black;stroke-width:0.8"/>
<line x1="-21.21320343559652" y1="-501.2132034355964" x2="-42.42640687119295" y2="-522.4264068711929" style="stroke:black;stroke-width:0.8"/>
<line x1="-42.42640687119295" y1="-522.4264068711929" x2="-63.63961030678938" y2="-543.6396103067892" style="stroke:black;stroke-width:0.8"/>
<line x1="-63.63961030678938" y1="-543.6396103067892" x2="-84.8528137423858" y2="-564.8528137423856" style="stroke:black;stroke-width:0.8"/>
<line x1="-84.8528137423858" y1="-564.8528137423856" x2="-106.06601717798223" y2="-586.066017177982" style="stroke:black;stroke-width:0.8"/>
<line x1="-106.06601717798223" y1="-586.066017177982" x2="-127.27922061357866" y2="-607.2792206135783" style="stroke:black;stroke-width:0.8"/>
<line x1="-127.27922061357866" y1="-607.2792206135783" x2="-148.4924240491751" y2="-628.4924240491747" style="stroke:black;stroke-width:0.8"/>
<line x1="-148.4924240491751" y1="-628.4924240491747" x2="-169.70562748477153" y2="-649.7056274847711" style="stroke:black;stroke-width:0.8"/>
<line x1="-169.70562748477153" y1="-649.7056274847711" x2="-169.70562748477153" y2="-679.7056274847711" style="stroke:black;stroke-width:0.8"/>
<line x1="-169.70562748477153" y1="-679.7056274847711" x2="-169.70562748477153" y2="-709.7056274847711" style="stroke:black;stroke-width:0.8"/>
<line x1="-169.70562748477153" y1="-709.7056274847711" x2="-169.70562748477153" y2="-739.7056274847711" style="stroke:black;stroke-width:0.8"/>
<line x1="-169.70562748477153" y1="-739.7056274847711" x2="-169.70562748477153" y2="-769.7056274847711" style="stroke:black;stroke-width:0.8"/>
<line x1="-169.70562748477153" y1="-769.7056274847711" x2="-148.4924240491751" y2="-790.9188309203676" style="stroke:black;stroke-width:0.8"/>
<line x1="-148.4924240491751" y1="-790.9188309203676" x2="-127.27922061357867" y2="-812.132034355964" style="stroke:black;stroke-width:0.8"/>
<line x1="-127.27922061357867" y1="-812.132034355964" x2="-97.27922061357867" y2="-812.132034355964" style="stroke:black;stroke-width:0.8"/>
<line x1="-97.27922061357867" y1="-812.132034355964" x2="-76.06601717798225" y2="-790.9188309203677" style="stroke:black;stroke-width:0.8"/>
<line x1="-97.27922061357867" y1="-812.132034355964" x2="-76.06601717798225" y2="-833.3452377915605" style="stroke:black;stroke-width:0.8"/>
<line x1="-127.27922061357867" y1="-812.132034355964" x2="-127.27922061357867" y2="-842.132034355964" style="stroke:black;stroke-width:0.8"/>
<line x1="-127.27922061357867" y1="-842.132034355964" x2="-106.06601717798225" y2="-863.3452377915605" style="stroke:black;stroke-width:0.8"/>
<line x1="-127.27922061357867" y1="-842.132034355964" x2="-148.4924240491751" y2="-863.3452377915604" style="stroke:black;stroke-width:0.8"/>
<line x1="-169.70562748477153" y1="-769.7056274847711" x2="-190.91883092036795" y2="-790.9188309203674" style="stroke:black;stroke-width:0.8"/>
<line x1="-190.91883092036795" y1="-790.9188309203674" x2="-212.13203435596438" y2="-812.1320343559638" style="stroke:black;stroke-width:0.8"/>
<line x1="-212.13203435596438" y1="-812.1320343559638" x2="-212.13203435596438" y2="-842.1320343559638" style="stroke:black;stroke-width:0.8"/>
<line x1="-212.13203435596438" y1="-842.1320343559638" x2="-190.91883092036795" y2="-863.3452377915603" style="stroke:black;stroke-width:0.8"/>
<line x1="-212.13203435596438" y1="-842.1320343559638" x2="-233.3452377915608" y2="-863.3452377915602" style="stroke:black;stroke-width:0.8"/>
<line x1="-212.13203435596438" y1="-812.1320343559638" x2="-242.13203435596438" y2="-812.1320343559638" style="stroke:black;stroke-width:0.8"/>
<line x1="-242.13203435596438" y1="-812.1320343559638" x2="-263.3452377915608" y2="-833.3452377915602" style="stroke:black;stroke-width:0.8"/>
<line x1="-242.13203435596438" y1="-812.1320343559638" x2="-263.3452377915608" y2="-790.9188309203673" style="stroke:black;stroke-width:0.8"/>
<line x1="-169.70562748477153" y1="-649.7056274847711" x2="-199.70562748477153" y2="-649.7056274847711" style="stroke:black;stroke-width:0.8"/>
<line x1="-199.70562748477153" y1="-649.7056274847711" x2="-229.70562748477153" y2="-649.7056274847711" style="stroke:black;stroke-width:0.8"/>
<line x1="-229.70562748477153" y1="-649.7056274847711" x2="-259.7056274847715" y2="-649.7056274847711" style="stroke:black;stroke-width:0.8"/>
<line x1="-259.7056274847715" y1="-649.7056274847711" x2="-289.7056274847715" y2="-649.7056274847711" style="stroke:black;stroke-width:0.8"/>
<line x1="-289.7056274847715" y1="-649.7056274847711" x2="-310.91883092036795" y2="-670.9188309203674" style="stroke:black;stroke-width:0.8"/>
<line x1="-310.91883092036795" y1="-670.9188309203674" x2="-332.1320343559644" y2="-692.1320343559638" style="stroke:black;stroke-width:0.8"/>
<line x1="-332.1320343559644" y1="-692.1320343559638" x2="-332.1320343559644" y2="-722.1320343559638" style="stroke:black;stroke-width:0.8"/>
<line x1="-332.1320343559644" y1="-722.1320343559638" x2="-310.91883092036795" y2="-743.3452377915603" style="stroke:black;stroke-width:0.8"/>
<line x1="-332.1320343559644" y1="-722.1320343559638" x2="-353.3452377915608" y2="-743.3452377915602" style="stroke:black;stroke-width:0.8"/>
<line x1="-332.1320343559644" y1="-692.1320343559638" x2="-362.1320343559644" y2="-692.1320343559638" style="stroke:black;stroke-width:0.8"/>
<line x1="-362.1320343559644" y1="-692.1320343559638" x2="-383.3452377915608" y2="-713.3452377915602" style="stroke:black;stroke-width:0.8"/>
<line x1="-362.1320343559644" y1="-692.1320343559638" x2="-383.3452377915608" y2="-670.9188309203673" style="stroke:black;stroke-width:0.8"/>
<line x1="-289.7056274847715" y1="-649.7056274847711" x2="-310.91883092036795" y2="-628.4924240491746" style="stroke:black;stroke-width:0.8"/>
<line x1="-310.91883092036795" y1="-628.4924240491746" x2="-332.1320343559644" y2="-607.2792206135782" style="stroke:black;stroke-width:0.8"/>
<line x1="-332.1320343559644" y1="-607.2792206135782" x2="-362.1320343559644" y2="-607.2792206135782" style="stroke:black;stroke-width:0.8"/>
<line x1="-362.1320343559644" y1="-607.2792206135782" x2="-383.3452377915608" y2="-628.4924240491746" style="stroke:black;stroke-width:0.8"/>
<line x1="-362.1320343559644" y1="-607.2792206135782" x2="-383.3452377915608" y2="-586.0660171779818" style="stroke:black;stroke-width:0.8"/>
<line x1="-332.1320343559644" y1="-607.2792206135782" x2="-332.1320343559644" y2="-577.2792206135782" style="stroke:black;stroke-width:0.8"/>
<line x1="-332.1320343559644" y1="-577.2792206135782" x2="-353.3452377915608" y2="-556.0660171779818" style="stroke:black;stroke-width:0.8"/>
<line x1="-332.1320343559644" y1="-577.2792206135782" x2="-310.91883092036795" y2="-556.0660171779818" style="stroke:black;stroke-width:0.8"/>
</svg>
