<?xml version="1.0" encoding="UTF-8" standalone="no"?>
<!DOCTYPE svg PUBLIC "-//W3C//DTD SVG 1.1//EN" "http://www.w3.org/Graphics/SVG/1.1/DTD/svg11.dtd">
<svg xmlns="http://www.w3.org/2000/svg" version="1.1" width="1000" height="1000">
<line x1="0" y1="0" x2="400.0" y2="0.0" style="stroke:black;stroke-width:0.8"/>
<line x1="400.0" y1="0.0" x2="400.0" y2="400.0" style="stroke:black;stroke-width:0.8"/>
<line x1="400.0" y1="400.0" x2="0.0" y2="400.00000000000006" style="stroke:black;stroke-width:0.8"/>
<line x1="0.0" y1="400.00000000000006" x2="-7.347880794884119e-14" y2="5.684341886080802e-14" style="stroke:black;stroke-width:0.8"/>
<line x1="-7.347880794884119e-14" y1="5.684341886080802e-14" x2="359.99999999999994" y2="5.684341886080802e-14" style="stroke:black;stroke-width:0.8"/>
<line x1="359.99999999999994" y1="5.684341886080802e-14" x2="400.0000000000003" y2="360.00000000000006" style="stroke:black;stroke-width:0.8"/>
<line x1="400.0000000000003" y1="360.00000000000006" x2="40.000000000000284" y2="400.0000000000005" style="stroke:black;stroke-width:0.8"/>
<line x1="40.000000000000284" y1="400.0000000000005" x2="-1.8474111129762605e-13" y2="40.00000000000051" style="stroke:black;stroke-width:0.8"/>
<line x1="-1.8474111129762605e-13" y1="40.00000000000051" x2="359.99999999999983" y2="2.1316282072803006e-14" style="stroke:black;stroke-width:0.8"/>
<line x1="359.99999999999983" y1="2.1316282072803006e-14" x2="396.0000000000002" y2="324.0" style="stroke:black;stroke-width:0.8"/>
<line x1="396.0000000000002" y1="324.0" x2="76.00000000000028" y2="396.00000000000045" style="stroke:black;stroke-width:0.8"/>
<line x1="76.00000000000028" y1="396.00000000000045" x2="3.999999999999787" y2="76.00000000000051" style="stroke:black;stroke-width:0.8"/>
<line x1="3.999999999999787" y1="76.00000000000051" x2="323.9999999999997" y2="3.999999999999986" style="stroke:black;stroke-width:0.8"/>
<line x1="323.9999999999997" y1="3.999999999999986" x2="396.00000000000017" y2="323.99999999999994" style="stroke:black;stroke-width:0.8"/>
<line x1="396.00000000000017" y1="323.99999999999994" x2="108.00000000000023" y2="388.80000000000035" style="stroke:black;stroke-width:0.8"/>
<line x1="108.00000000000023" y1="388.80000000000035" x2="11.199999999999719" y2="108.00000000000045" style="stroke:black;stroke-width:0.8"/>
<line x1="11.199999999999719" y1="108.00000000000045" x2="291.9999999999996" y2="11.199999999999946" style="stroke:black;stroke-width:0.8"/>
<line x1="291.9999999999996" y1="11.199999999999946" x2="388.80000000000007" y2="291.99999999999983" style="stroke:black;stroke-width:0.8"/>
<line x1="388.80000000000007" y1="291.99999999999983" x2="108.00000000000017" y2="388.8000000000003" style="stroke:black;stroke-width:0.8"/>
<line x1="108.00000000000017" y1="388.8000000000003" x2="20.87999999999971" y2="136.08000000000038" style="stroke:black;stroke-width:0.8"/>
<line x1="20.87999999999971" y1="136.08000000000038" x2="263.91999999999945" y2="20.87999999999964" style="stroke:black;stroke-width:0.8"/>
<line x1="263.91999999999945" y1="20.87999999999964" x2="379.1200000000001" y2="263.9199999999994" style="stroke:black;stroke-width:0.8"/>
<line x1="379.1200000000001" y1="263.9199999999994" x2="136.08000000000035" y2="379.1200000000001" style="stroke:black;stroke-width:0.8"/>
<line x1="136.08000000000035" y1="379.1200000000001" x2="20.879999999999626" y2="136.08000000000035" style="stroke:black;stroke-width:0.8"/>
<line x1="20.879999999999626" y1="136.08000000000035" x2="239.6159999999994" y2="32.39999999999969" style="stroke:black;stroke-width:0.8"/>
<line x1="239.6159999999994" y1="32.39999999999969" x2="367.5999999999998" y2="239.6159999999995" style="stroke:black;stroke-width:0.8"/>
<line x1="367.5999999999998" y1="239.6159999999995" x2="160.38400000000001" y2="367.59999999999997" style="stroke:black;stroke-width:0.8"/>
<line x1="160.38400000000001" y1="367.59999999999997" x2="32.39999999999952" y2="160.38400000000019" style="stroke:black;stroke-width:0.8"/>
<line x1="32.39999999999952" y1="160.38400000000019" x2="239.6159999999993" y2="32.39999999999969" style="stroke:black;stroke-width:0.8"/>
<line x1="239.6159999999993" y1="32.39999999999969" x2="354.80159999999967" y2="218.8943999999995" style="stroke:black;stroke-width:0.8"/>
<line x1="354.80159999999967" y1="218.8943999999995" x2="181.10559999999978" y2="354.80159999999967" style="stroke:black;stroke-width:0.8"/>
<line x1="181.10559999999978" y1="354.80159999999967" x2="45.19839999999948" y2="181.10559999999987" style="stroke:black;stroke-width:0.8"/>
<line x1="45.19839999999948" y1="181.10559999999987" x2="218.89439999999928" y2="45.198399999999566" style="stroke:black;stroke-width:0.8"/>
<line x1="218.89439999999928" y1="45.198399999999566" x2="354.8015999999995" y2="218.89439999999945" style="stroke:black;stroke-width:0.8"/>
<line x1="354.8015999999995" y1="218.89439999999945" x2="198.4751999999996" y2="341.21087999999963" style="stroke:black;stroke-width:0.8"/>
<line x1="198.4751999999996" y1="341.21087999999963" x2="58.78911999999926" y2="198.4751999999999" style="stroke:black;stroke-width:0.8"/>
<line x1="58.78911999999926" y1="198.4751999999999" x2="201.5247999999989" y2="58.789119999999485" style="stroke:black;stroke-width:0.8"/>
<line x1="201.5247999999989" y1="58.789119999999485" x2="341.2108799999993" y2="201.52479999999917" style="stroke:black;stroke-width:0.8"/>
<line x1="341.2108799999993" y1="201.52479999999917" x2="198.47519999999955" y2="341.2108799999995" style="stroke:black;stroke-width:0.8"/>
<line x1="198.47519999999955" y1="341.2108799999995" x2="72.75772799999923" y2="212.74876799999976" style="stroke:black;stroke-width:0.8"/>
<line x1="72.75772799999923" y1="212.74876799999976" x2="187.25123199999908" y2="72.75772799999959" style="stroke:black;stroke-width:0.8"/>
<line x1="187.25123199999908" y1="72.75772799999959" x2="327.2422719999993" y2="187.25123199999942" style="stroke:black;stroke-width:0.8"/>
<line x1="327.2422719999993" y1="187.25123199999942" x2="212.74876799999947" y2="327.2422719999996" style="stroke:black;stroke-width:0.8"/>
<line x1="212.74876799999947" y1="327.2422719999996" x2="72.7577279999993" y2="212.7487679999998" style="stroke:black;stroke-width:0.8"/>
<line x1="72.7577279999993" y1="212.7487679999998" x2="175.80188159999915" y2="86.75683199999966" style="stroke:black;stroke-width:0.8"/>
<line x1="175.80188159999915" y1="86.75683199999966" x2="313.2431679999993" y2="175.80188159999943" style="stroke:black;stroke-width:0.8"/>
<line x1="313.2431679999993" y1="175.80188159999943" x2="224.19811839999952" y2="313.2431679999996" style="stroke:black;stroke-width:0.8"/>
<line x1="224.19811839999952" y1="313.2431679999996" x2="86.75683199999935" y2="224.19811839999986" style="stroke:black;stroke-width:0.8"/>
<line x1="86.75683199999935" y1="224.19811839999986" x2="175.80188159999918" y2="86.75683199999972" style="stroke:black;stroke-width:0.8"/>
<line x1="175.80188159999918" y1="86.75683199999972" x2="299.4990393599993" y2="166.89737663999952" style="stroke:black;stroke-width:0.8"/>
<line x1="299.4990393599993" y1="166.89737663999952" x2="233.1026233599996" y2="299.4990393599997" style="stroke:black;stroke-width:0.8"/>
<line x1="233.1026233599996" y1="299.4990393599997" x2="100.50096063999939" y2="233.10262336000005" style="stroke:black;stroke-width:0.8"/>
<line x1="100.50096063999939" y1="233.10262336000005" x2="166.8973766399991" y2="100.50096063999985" style="stroke:black;stroke-width:0.8"/>
<line x1="166.8973766399991" y1="100.50096063999985" x2="299.4990393599993" y2="166.8973766399995" style="stroke:black;stroke-width:0.8"/>
<line x1="299.4990393599993" y1="166.8973766399995" x2="239.7422649599996" y2="286.2388730879997" style="stroke:black;stroke-width:0.8"/>
<line x1="239.7422649599996" y1="286.2388730879997" x2="113.76112691199943" y2="239.74226496000009" style="stroke:black;stroke-width:0.8"/>
<line x1="113.76112691199943" y1="239.74226496000009" x2="160.2577350399991" y2="113.76112691199992" style="stroke:black;stroke-width:0.8"/>
<line x1="160.2577350399991" y1="113.76112691199992" x2="286.23887308799925" y2="160.25773503999955" style="stroke:black;stroke-width:0.8"/>
<line x1="286.23887308799925" y1="160.25773503999955" x2="239.74226495999963" y2="286.2388730879997" style="stroke:black;stroke-width:0.8"/>
<line x1="239.74226495999963" y1="286.2388730879997" x2="126.35924071679948" y2="244.39192577280005" style="stroke:black;stroke-width:0.8"/>
<line x1="126.35924071679948" y1="244.39192577280005" x2="155.60807422719915" y2="126.35924071679992" style="stroke:black;stroke-width:0.8"/>
<line x1="155.60807422719915" y1="126.35924071679992" x2="273.64075928319926" y2="155.60807422719955" style="stroke:black;stroke-width:0.8"/>
<line x1="273.64075928319926" y1="155.60807422719955" x2="244.39192577279962" y2="273.6407592831997" style="stroke:black;stroke-width:0.8"/>
<line x1="244.39192577279962" y1="273.6407592831997" x2="126.35924071679949" y2="244.3919257728001" style="stroke:black;stroke-width:0.8"/>
<line x1="126.35924071679949" y1="244.3919257728001" x2="152.6831908761592" y2="138.1625092224" style="stroke:black;stroke-width:0.8"/>
<line x1="152.6831908761592" y1="138.1625092224" x2="261.83749077759927" y2="152.68319087615953" style="stroke:black;stroke-width:0.8"/>
<line x1="261.83749077759927" y1="152.68319087615953" x2="247.31680912383973" y2="261.8374907775996" style="stroke:black;stroke-width:0.8"/>
<line x1="247.31680912383973" y1="261.8374907775996" x2="138.16250922239965" y2="247.31680912384007" style="stroke:black;stroke-width:0.8"/>
<line x1="138.16250922239965" y1="247.31680912384007" x2="152.68319087615922" y2="138.1625092224" style="stroke:black;stroke-width:0.8"/>
<line x1="152.68319087615922" y1="138.1625092224" x2="250.9220607874553" y2="151.23112271078358" style="stroke:black;stroke-width:0.8"/>
<line x1="250.9220607874553" y1="151.23112271078358" x2="248.7688772892157" y2="250.92206078745562" style="stroke:black;stroke-width:0.8"/>
<line x1="248.7688772892157" y1="250.92206078745562" x2="149.07793921254364" y2="248.76887728921608" style="stroke:black;stroke-width:0.8"/>
<line x1="149.07793921254364" y1="248.76887728921608" x2="151.2311227107832" y2="149.07793921254404" style="stroke:black;stroke-width:0.8"/>
<line x1="151.2311227107832" y1="149.07793921254404" x2="250.92206078745528" y2="151.2311227107836" style="stroke:black;stroke-width:0.8"/>
<line x1="250.92206078745528" y1="151.2311227107836" x2="248.98419563903968" y2="240.95296697978847" style="stroke:black;stroke-width:0.8"/>
</svg>
