<?xml version="1.0" encoding="UTF-8" standalone="no"?>
<!DOCTYPE svg PUBLIC "-//W3C//DTD SVG 1.1//EN" "http://www.w3.org/Graphics/SVG/1.1/DTD/svg11.dtd">
<svg xmlns="http://www.w3.org/2000/svg" version="1.1" width="1000" height="1000">
<line x1="0" y1="0" x2="200.0" y2="0.0" style="stroke:black;stroke-width:0.8"/>
<line x1="200.0" y1="0.0" x2="3.0384493975583666" y2="34.72963553338605" style="stroke:black;stroke-width:0.8"/>
<line x1="3.0384493975583666" y1="34.72963553338605" x2="190.97697355474006" y2="-33.67439313174766" style="stroke:black;stroke-width:0.8"/>
<line x1="190.97697355474006" y1="-33.67439313174766" x2="17.771892797852303" y2="66.32560686825232" style="stroke:black;stroke-width:0.8"/>
<line x1="17.771892797852303" y1="66.32560686825232" x2="170.9807814216479" y2="-62.23191506905559" style="stroke:black;stroke-width:0.8"/>
<line x1="170.9807814216479" y1="-62.23191506905559" x2="42.423259484340036" y2="90.97697355474003" style="stroke:black;stroke-width:0.8"/>
<line x1="42.423259484340036" y1="90.97697355474003" x2="142.42325948434004" y2="-82.2281072021477" style="stroke:black;stroke-width:0.8"/>
<line x1="142.42325948434004" y1="-82.2281072021477" x2="74.0192308192063" y2="105.71041695503399" style="stroke:black;stroke-width:0.8"/>
<line x1="74.0192308192063" y1="105.71041695503399" x2="108.7488663525923" y2="-91.25113364740764" style="stroke:black;stroke-width:0.8"/>
<line x1="108.7488663525923" y1="-91.25113364740764" x2="108.74886635259232" y2="108.74886635259236" style="stroke:black;stroke-width:0.8"/>
<line x1="108.74886635259232" y1="108.74886635259236" x2="74.01923081920626" y2="-88.21268424984925" style="stroke:black;stroke-width:0.8"/>
<line x1="74.01923081920626" y1="-88.21268424984925" x2="142.42325948434" y2="99.72583990733241" style="stroke:black;stroke-width:0.8"/>
<line x1="142.42325948434" y1="99.72583990733241" x2="42.42325948433992" y2="-73.47924084955525" style="stroke:black;stroke-width:0.8"/>
<line x1="42.42325948433992" y1="-73.47924084955525" x2="170.9807814216478" y2="79.72964777424036" style="stroke:black;stroke-width:0.8"/>
<line x1="170.9807814216478" y1="79.72964777424036" x2="17.77189279785219" y2="-48.82787416306749" style="stroke:black;stroke-width:0.8"/>
<line x1="17.77189279785219" y1="-48.82787416306749" x2="190.97697355473994" y2="51.172125836932494" style="stroke:black;stroke-width:0.8"/>
<line x1="190.97697355473994" y1="51.172125836932494" x2="3.038449397558253" y2="-17.231902828201243" style="stroke:black;stroke-width:0.8"/>
<line x1="3.038449397558253" y1="-17.231902828201243" x2="199.99999999999986" y2="17.497732705184823" style="stroke:black;stroke-width:0.8"/>
<line x1="199.99999999999986" y1="17.497732705184823" x2="-1.4210854715202004e-13" y2="17.49773270518485" style="stroke:black;stroke-width:0.8"/>
<line x1="-1.4210854715202004e-13" y1="17.49773270518485" x2="196.96155060244146" y2="-17.231902828201232" style="stroke:black;stroke-width:0.8"/>
<line x1="196.96155060244146" y1="-17.231902828201232" x2="9.023026445259802" y2="51.17212583693255" style="stroke:black;stroke-width:0.8"/>
<line x1="9.023026445259802" y1="51.17212583693255" x2="182.22810720214747" y2="-48.827874163067534" style="stroke:black;stroke-width:0.8"/>
<line x1="182.22810720214747" y1="-48.827874163067534" x2="29.019218578351882" y2="79.72964777424035" style="stroke:black;stroke-width:0.8"/>
<line x1="29.019218578351882" y1="79.72964777424035" x2="157.57674051565974" y2="-73.47924084955527" style="stroke:black;stroke-width:0.8"/>
<line x1="157.57674051565974" y1="-73.47924084955527" x2="57.57674051565978" y2="99.72583990733249" style="stroke:black;stroke-width:0.8"/>
<line x1="57.57674051565978" y1="99.72583990733249" x2="125.98076918079359" y2="-88.21268424984918" style="stroke:black;stroke-width:0.8"/>
<line x1="125.98076918079359" y1="-88.21268424984918" x2="91.25113364740753" y2="108.74886635259243" style="stroke:black;stroke-width:0.8"/>
<line x1="91.25113364740753" y1="108.74886635259243" x2="91.25113364740749" y2="-91.25113364740757" style="stroke:black;stroke-width:0.8"/>
<line x1="91.25113364740749" y1="-91.25113364740757" x2="125.98076918079357" y2="105.71041695503403" style="stroke:black;stroke-width:0.8"/>
<line x1="125.98076918079357" y1="105.71041695503403" x2="57.57674051565988" y2="-82.22810720214765" style="stroke:black;stroke-width:0.8"/>
<line x1="57.57674051565988" y1="-82.22810720214765" x2="157.5767405156599" y2="90.97697355474007" style="stroke:black;stroke-width:0.8"/>
<line x1="157.5767405156599" y1="90.97697355474007" x2="29.019218578351996" y2="-62.23191506905552" style="stroke:black;stroke-width:0.8"/>
<line x1="29.019218578351996" y1="-62.23191506905552" x2="182.2281072021476" y2="66.32560686825234" style="stroke:black;stroke-width:0.8"/>
<line x1="182.2281072021476" y1="66.32560686825234" x2="9.023026445259887" y2="-33.67439313174769" style="stroke:black;stroke-width:0.8"/>
<line x1="9.023026445259887" y1="-33.67439313174769" x2="196.96155060244158" y2="34.729635533386045" style="stroke:black;stroke-width:0.8"/>
<line x1="196.96155060244158" y1="34.729635533386045" x2="-2.842170943040401e-14" y2="-4.973799150320701e-14" style="stroke:black;stroke-width:0.8"/>
</svg>
