<?xml version="1.0" encoding="UTF-8" standalone="no"?>
<!DOCTYPE svg PUBLIC "-//W3C//DTD SVG 1.1//EN" "http://www.w3.org/Graphics/SVG/1.1/DTD/svg11.dtd">
<svg xmlns="http://www.w3.org/2000/svg" version="1.1" width="1000" height="1000">
<line x1="0" y1="0" x2="18.518518518518515" y2="0.0" style="stroke:black;stroke-width:0.8"/>
<line x1="18.518518518518515" y1="0.0" x2="27.777777777777775" y2="16.0375074774896" style="stroke:black;stroke-width:0.8"/>
<line x1="27.777777777777775" y1="16.0375074774896" x2="37.03703703703703" y2="0.0" style="stroke:black;stroke-width:0.8"/>
<line x1="37.03703703703703" y1="0.0" x2="55.55555555555554" y2="0.0" style="stroke:black;stroke-width:0.8"/>
<line x1="55.55555555555554" y1="0.0" x2="64.81481481481481" y2="16.0375074774896" style="stroke:black;stroke-width:0.8"/>
<line x1="64.81481481481481" y1="16.0375074774896" x2="55.55555555555556" y2="32.07501495497921" style="stroke:black;stroke-width:0.8"/>
<line x1="55.55555555555556" y1="32.07501495497921" x2="74.07407407407408" y2="32.07501495497921" style="stroke:black;stroke-width:0.8"/>
<line x1="74.07407407407408" y1="32.07501495497921" x2="83.33333333333334" y2="48.11252243246881" style="stroke:black;stroke-width:0.8"/>
<line x1="83.33333333333334" y1="48.11252243246881" x2="92.5925925925926" y2="32.07501495497921" style="stroke:black;stroke-width:0.8"/>
<line x1="92.5925925925926" y1="32.07501495497921" x2="111.11111111111111" y2="32.07501495497921" style="stroke:black;stroke-width:0.8"/>
<line x1="111.11111111111111" y1="32.07501495497921" x2="101.85185185185185" y2="16.037507477489612" style="stroke:black;stroke-width:0.8"/>
<line x1="101.85185185185185" y1="16.037507477489612" x2="111.1111111111111" y2="1.0658141036401503e-14" style="stroke:black;stroke-width:0.8"/>
<line x1="111.1111111111111" y1="1.0658141036401503e-14" x2="129.62962962962962" y2="1.0658141036401503e-14" style="stroke:black;stroke-width:0.8"/>
<line x1="129.62962962962962" y1="1.0658141036401503e-14" x2="138.88888888888889" y2="16.037507477489612" style="stroke:black;stroke-width:0.8"/>
<line x1="138.88888888888889" y1="16.037507477489612" x2="148.14814814814815" y2="1.0658141036401503e-14" style="stroke:black;stroke-width:0.8"/>
<line x1="148.14814814814815" y1="1.0658141036401503e-14" x2="166.66666666666666" y2="1.0658141036401503e-14" style="stroke:black;stroke-width:0.8"/>
<line x1="166.66666666666666" y1="1.0658141036401503e-14" x2="175.92592592592592" y2="16.037507477489612" style="stroke:black;stroke-width:0.8"/>
<line x1="175.92592592592592" y1="16.037507477489612" x2="166.66666666666666" y2="32.07501495497922" style="stroke:black;stroke-width:0.8"/>
<line x1="166.66666666666666" y1="32.07501495497922" x2="185.18518518518516" y2="32.07501495497922" style="stroke:black;stroke-width:0.8"/>
<line x1="185.18518518518516" y1="32.07501495497922" x2="194.44444444444443" y2="48.11252243246882" style="stroke:black;stroke-width:0.8"/>
<line x1="194.44444444444443" y1="48.11252243246882" x2="185.18518518518516" y2="64.15002990995842" style="stroke:black;stroke-width:0.8"/>
<line x1="185.18518518518516" y1="64.15002990995842" x2="166.66666666666666" y2="64.15002990995842" style="stroke:black;stroke-width:0.8"/>
<line x1="166.66666666666666" y1="64.15002990995842" x2="175.92592592592592" y2="80.18753738744802" style="stroke:black;stroke-width:0.8"/>
<line x1="175.92592592592592" y1="80.18753738744802" x2="166.66666666666666" y2="96.22504486493762" style="stroke:black;stroke-width:0.8"/>
<line x1="166.66666666666666" y1="96.22504486493762" x2="185.18518518518516" y2="96.22504486493762" style="stroke:black;stroke-width:0.8"/>
<line x1="185.18518518518516" y1="96.22504486493762" x2="194.44444444444443" y2="112.26255234242721" style="stroke:black;stroke-width:0.8"/>
<line x1="194.44444444444443" y1="112.26255234242721" x2="203.7037037037037" y2="96.22504486493762" style="stroke:black;stroke-width:0.8"/>
<line x1="203.7037037037037" y1="96.22504486493762" x2="222.2222222222222" y2="96.22504486493762" style="stroke:black;stroke-width:0.8"/>
<line x1="222.2222222222222" y1="96.22504486493762" x2="231.48148148148147" y2="112.26255234242721" style="stroke:black;stroke-width:0.8"/>
<line x1="231.48148148148147" y1="112.26255234242721" x2="222.2222222222222" y2="128.3000598199168" style="stroke:black;stroke-width:0.8"/>
<line x1="222.2222222222222" y1="128.3000598199168" x2="240.7407407407407" y2="128.3000598199168" style="stroke:black;stroke-width:0.8"/>
<line x1="240.7407407407407" y1="128.3000598199168" x2="249.99999999999997" y2="144.33756729740642" style="stroke:black;stroke-width:0.8"/>
<line x1="249.99999999999997" y1="144.33756729740642" x2="259.25925925925924" y2="128.3000598199168" style="stroke:black;stroke-width:0.8"/>
<line x1="259.25925925925924" y1="128.3000598199168" x2="277.77777777777777" y2="128.3000598199168" style="stroke:black;stroke-width:0.8"/>
<line x1="277.77777777777777" y1="128.3000598199168" x2="268.5185185185185" y2="112.26255234242721" style="stroke:black;stroke-width:0.8"/>
<line x1="268.5185185185185" y1="112.26255234242721" x2="277.7777777777777" y2="96.22504486493762" style="stroke:black;stroke-width:0.8"/>
<line x1="277.7777777777777" y1="96.22504486493762" x2="296.29629629629625" y2="96.22504486493762" style="stroke:black;stroke-width:0.8"/>
<line x1="296.29629629629625" y1="96.22504486493762" x2="305.5555555555555" y2="112.26255234242721" style="stroke:black;stroke-width:0.8"/>
<line x1="305.5555555555555" y1="112.26255234242721" x2="314.8148148148147" y2="96.22504486493762" style="stroke:black;stroke-width:0.8"/>
<line x1="314.8148148148147" y1="96.22504486493762" x2="333.33333333333326" y2="96.22504486493762" style="stroke:black;stroke-width:0.8"/>
<line x1="333.33333333333326" y1="96.22504486493762" x2="324.074074074074" y2="80.18753738744802" style="stroke:black;stroke-width:0.8"/>
<line x1="324.074074074074" y1="80.18753738744802" x2="333.33333333333326" y2="64.15002990995842" style="stroke:black;stroke-width:0.8"/>
<line x1="333.33333333333326" y1="64.15002990995842" x2="314.8148148148147" y2="64.15002990995842" style="stroke:black;stroke-width:0.8"/>
<line x1="314.8148148148147" y1="64.15002990995842" x2="305.55555555555543" y2="48.11252243246882" style="stroke:black;stroke-width:0.8"/>
<line x1="305.55555555555543" y1="48.11252243246882" x2="314.81481481481467" y2="32.075014954979224" style="stroke:black;stroke-width:0.8"/>
<line x1="314.81481481481467" y1="32.075014954979224" x2="333.3333333333332" y2="32.075014954979224" style="stroke:black;stroke-width:0.8"/>
<line x1="333.3333333333332" y1="32.075014954979224" x2="324.0740740740739" y2="16.037507477489626" style="stroke:black;stroke-width:0.8"/>
<line x1="324.0740740740739" y1="16.037507477489626" x2="333.33333333333314" y2="2.4868995751603507e-14" style="stroke:black;stroke-width:0.8"/>
<line x1="333.33333333333314" y1="2.4868995751603507e-14" x2="351.8518518518517" y2="2.4868995751603507e-14" style="stroke:black;stroke-width:0.8"/>
<line x1="351.8518518518517" y1="2.4868995751603507e-14" x2="361.1111111111109" y2="16.037507477489626" style="stroke:black;stroke-width:0.8"/>
<line x1="361.1111111111109" y1="16.037507477489626" x2="370.37037037037015" y2="2.4868995751603507e-14" style="stroke:black;stroke-width:0.8"/>
<line x1="370.37037037037015" y1="2.4868995751603507e-14" x2="388.8888888888887" y2="2.4868995751603507e-14" style="stroke:black;stroke-width:0.8"/>
<line x1="388.8888888888887" y1="2.4868995751603507e-14" x2="398.1481481481479" y2="16.037507477489626" style="stroke:black;stroke-width:0.8"/>
<line x1="398.1481481481479" y1="16.037507477489626" x2="388.8888888888887" y2="32.07501495497923" style="stroke:black;stroke-width:0.8"/>
<line x1="388.8888888888887" y1="32.07501495497923" x2="407.4074074074072" y2="32.07501495497923" style="stroke:black;stroke-width:0.8"/>
<line x1="407.4074074074072" y1="32.07501495497923" x2="416.66666666666646" y2="48.112522432468836" style="stroke:black;stroke-width:0.8"/>
<line x1="416.66666666666646" y1="48.112522432468836" x2="425.9259259259257" y2="32.07501495497924" style="stroke:black;stroke-width:0.8"/>
<line x1="425.9259259259257" y1="32.07501495497924" x2="444.44444444444423" y2="32.07501495497924" style="stroke:black;stroke-width:0.8"/>
<line x1="444.44444444444423" y1="32.07501495497924" x2="435.185185185185" y2="16.03750747748964" style="stroke:black;stroke-width:0.8"/>
<line x1="435.185185185185" y1="16.03750747748964" x2="444.44444444444423" y2="3.907985046680551e-14" style="stroke:black;stroke-width:0.8"/>
<line x1="444.44444444444423" y1="3.907985046680551e-14" x2="462.96296296296276" y2="3.907985046680551e-14" style="stroke:black;stroke-width:0.8"/>
<line x1="462.96296296296276" y1="3.907985046680551e-14" x2="472.222222222222" y2="16.03750747748964" style="stroke:black;stroke-width:0.8"/>
<line x1="472.222222222222" y1="16.03750747748964" x2="481.48148148148124" y2="3.907985046680551e-14" style="stroke:black;stroke-width:0.8"/>
<line x1="481.48148148148124" y1="3.907985046680551e-14" x2="499.9999999999998" y2="3.907985046680551e-14" style="stroke:black;stroke-width:0.8"/>
<line x1="499.9999999999998" y1="3.907985046680551e-14" x2="490.74074074074053" y2="-16.03750747748956" style="stroke:black;stroke-width:0.8"/>
<line x1="490.74074074074053" y1="-16.03750747748956" x2="499.9999999999998" y2="-32.07501495497916" style="stroke:black;stroke-width:0.8"/>
<line x1="499.9999999999998" y1="-32.07501495497916" x2="481.48148148148124" y2="-32.07501495497916" style="stroke:black;stroke-width:0.8"/>
<line x1="481.48148148148124" y1="-32.07501495497916" x2="472.22222222222194" y2="-48.11252243246876" style="stroke:black;stroke-width:0.8"/>
<line x1="472.22222222222194" y1="-48.11252243246876" x2="481.4814814814812" y2="-64.15002990995836" style="stroke:black;stroke-width:0.8"/>
<line x1="481.4814814814812" y1="-64.15002990995836" x2="499.9999999999997" y2="-64.15002990995836" style="stroke:black;stroke-width:0.8"/>
<line x1="499.9999999999997" y1="-64.15002990995836" x2="490.7407407407404" y2="-80.18753738744796" style="stroke:black;stroke-width:0.8"/>
<line x1="490.7407407407404" y1="-80.18753738744796" x2="499.99999999999966" y2="-96.22504486493756" style="stroke:black;stroke-width:0.8"/>
<line x1="499.99999999999966" y1="-96.22504486493756" x2="481.4814814814811" y2="-96.22504486493756" style="stroke:black;stroke-width:0.8"/>
<line x1="481.4814814814811" y1="-96.22504486493756" x2="472.22222222222183" y2="-112.26255234242716" style="stroke:black;stroke-width:0.8"/>
<line x1="472.22222222222183" y1="-112.26255234242716" x2="462.9629629629626" y2="-96.22504486493756" style="stroke:black;stroke-width:0.8"/>
<line x1="462.9629629629626" y1="-96.22504486493756" x2="444.44444444444406" y2="-96.22504486493756" style="stroke:black;stroke-width:0.8"/>
<line x1="444.44444444444406" y1="-96.22504486493756" x2="435.18518518518476" y2="-112.26255234242716" style="stroke:black;stroke-width:0.8"/>
<line x1="435.18518518518476" y1="-112.26255234242716" x2="444.444444444444" y2="-128.30005981991675" style="stroke:black;stroke-width:0.8"/>
<line x1="444.444444444444" y1="-128.30005981991675" x2="425.92592592592547" y2="-128.30005981991675" style="stroke:black;stroke-width:0.8"/>
<line x1="425.92592592592547" y1="-128.30005981991675" x2="416.6666666666662" y2="-144.33756729740634" style="stroke:black;stroke-width:0.8"/>
<line x1="416.6666666666662" y1="-144.33756729740634" x2="425.9259259259254" y2="-160.37507477489595" style="stroke:black;stroke-width:0.8"/>
<line x1="425.9259259259254" y1="-160.37507477489595" x2="444.44444444444395" y2="-160.37507477489595" style="stroke:black;stroke-width:0.8"/>
<line x1="444.44444444444395" y1="-160.37507477489595" x2="435.18518518518465" y2="-176.41258225238556" style="stroke:black;stroke-width:0.8"/>
<line x1="435.18518518518465" y1="-176.41258225238556" x2="444.4444444444439" y2="-192.45008972987517" style="stroke:black;stroke-width:0.8"/>
<line x1="444.4444444444439" y1="-192.45008972987517" x2="462.9629629629624" y2="-192.45008972987517" style="stroke:black;stroke-width:0.8"/>
<line x1="462.9629629629624" y1="-192.45008972987517" x2="472.22222222222166" y2="-176.41258225238556" style="stroke:black;stroke-width:0.8"/>
<line x1="472.22222222222166" y1="-176.41258225238556" x2="481.4814814814809" y2="-192.45008972987517" style="stroke:black;stroke-width:0.8"/>
<line x1="481.4814814814809" y1="-192.45008972987517" x2="499.99999999999943" y2="-192.45008972987517" style="stroke:black;stroke-width:0.8"/>
<line x1="499.99999999999943" y1="-192.45008972987517" x2="490.7407407407402" y2="-208.4875972073648" style="stroke:black;stroke-width:0.8"/>
<line x1="490.7407407407402" y1="-208.4875972073648" x2="499.99999999999943" y2="-224.5251046848544" style="stroke:black;stroke-width:0.8"/>
<line x1="499.99999999999943" y1="-224.5251046848544" x2="481.4814814814809" y2="-224.5251046848544" style="stroke:black;stroke-width:0.8"/>
<line x1="481.4814814814809" y1="-224.5251046848544" x2="472.2222222222216" y2="-240.562612162344" style="stroke:black;stroke-width:0.8"/>
<line x1="472.2222222222216" y1="-240.562612162344" x2="481.48148148148084" y2="-256.6001196398336" style="stroke:black;stroke-width:0.8"/>
<line x1="481.48148148148084" y1="-256.6001196398336" x2="499.9999999999994" y2="-256.6001196398336" style="stroke:black;stroke-width:0.8"/>
<line x1="499.9999999999994" y1="-256.6001196398336" x2="490.7407407407401" y2="-272.63762711732323" style="stroke:black;stroke-width:0.8"/>
<line x1="490.7407407407401" y1="-272.63762711732323" x2="499.9999999999993" y2="-288.67513459481285" style="stroke:black;stroke-width:0.8"/>
<line x1="499.9999999999993" y1="-288.67513459481285" x2="481.4814814814808" y2="-288.67513459481285" style="stroke:black;stroke-width:0.8"/>
<line x1="481.4814814814808" y1="-288.67513459481285" x2="472.2222222222215" y2="-304.71264207230246" style="stroke:black;stroke-width:0.8"/>
<line x1="472.2222222222215" y1="-304.71264207230246" x2="462.96296296296225" y2="-288.67513459481285" style="stroke:black;stroke-width:0.8"/>
<line x1="462.96296296296225" y1="-288.67513459481285" x2="444.4444444444437" y2="-288.67513459481285" style="stroke:black;stroke-width:0.8"/>
<line x1="444.4444444444437" y1="-288.67513459481285" x2="435.1851851851844" y2="-304.71264207230246" style="stroke:black;stroke-width:0.8"/>
<line x1="435.1851851851844" y1="-304.71264207230246" x2="444.44444444444366" y2="-320.75014954979207" style="stroke:black;stroke-width:0.8"/>
<line x1="444.44444444444366" y1="-320.75014954979207" x2="425.9259259259251" y2="-320.75014954979207" style="stroke:black;stroke-width:0.8"/>
<line x1="425.9259259259251" y1="-320.75014954979207" x2="416.66666666666583" y2="-336.7876570272817" style="stroke:black;stroke-width:0.8"/>
<line x1="416.66666666666583" y1="-336.7876570272817" x2="407.4074074074066" y2="-320.75014954979207" style="stroke:black;stroke-width:0.8"/>
<line x1="407.4074074074066" y1="-320.75014954979207" x2="388.88888888888806" y2="-320.75014954979207" style="stroke:black;stroke-width:0.8"/>
<line x1="388.88888888888806" y1="-320.75014954979207" x2="398.1481481481473" y2="-304.71264207230246" style="stroke:black;stroke-width:0.8"/>
<line x1="398.1481481481473" y1="-304.71264207230246" x2="388.88888888888806" y2="-288.67513459481285" style="stroke:black;stroke-width:0.8"/>
<line x1="388.88888888888806" y1="-288.67513459481285" x2="370.3703703703695" y2="-288.67513459481285" style="stroke:black;stroke-width:0.8"/>
<line x1="370.3703703703695" y1="-288.67513459481285" x2="361.1111111111103" y2="-304.71264207230246" style="stroke:black;stroke-width:0.8"/>
<line x1="361.1111111111103" y1="-304.71264207230246" x2="351.85185185185105" y2="-288.67513459481285" style="stroke:black;stroke-width:0.8"/>
<line x1="351.85185185185105" y1="-288.67513459481285" x2="333.3333333333325" y2="-288.67513459481285" style="stroke:black;stroke-width:0.8"/>
<line x1="333.3333333333325" y1="-288.67513459481285" x2="324.0740740740732" y2="-304.71264207230246" style="stroke:black;stroke-width:0.8"/>
<line x1="324.0740740740732" y1="-304.71264207230246" x2="333.33333333333246" y2="-320.75014954979207" style="stroke:black;stroke-width:0.8"/>
<line x1="333.33333333333246" y1="-320.75014954979207" x2="314.81481481481393" y2="-320.75014954979207" style="stroke:black;stroke-width:0.8"/>
<line x1="314.81481481481393" y1="-320.75014954979207" x2="305.55555555555463" y2="-336.7876570272817" style="stroke:black;stroke-width:0.8"/>
<line x1="305.55555555555463" y1="-336.7876570272817" x2="314.8148148148139" y2="-352.8251645047713" style="stroke:black;stroke-width:0.8"/>
<line x1="314.8148148148139" y1="-352.8251645047713" x2="333.3333333333324" y2="-352.8251645047713" style="stroke:black;stroke-width:0.8"/>
<line x1="333.3333333333324" y1="-352.8251645047713" x2="324.0740740740731" y2="-368.8626719822609" style="stroke:black;stroke-width:0.8"/>
<line x1="324.0740740740731" y1="-368.8626719822609" x2="333.33333333333235" y2="-384.9001794597505" style="stroke:black;stroke-width:0.8"/>
<line x1="333.33333333333235" y1="-384.9001794597505" x2="314.8148148148138" y2="-384.9001794597505" style="stroke:black;stroke-width:0.8"/>
<line x1="314.8148148148138" y1="-384.9001794597505" x2="305.5555555555545" y2="-400.93768693724013" style="stroke:black;stroke-width:0.8"/>
<line x1="305.5555555555545" y1="-400.93768693724013" x2="296.2962962962953" y2="-384.9001794597505" style="stroke:black;stroke-width:0.8"/>
<line x1="296.2962962962953" y1="-384.9001794597505" x2="277.77777777777675" y2="-384.9001794597505" style="stroke:black;stroke-width:0.8"/>
<line x1="277.77777777777675" y1="-384.9001794597505" x2="268.51851851851745" y2="-400.93768693724013" style="stroke:black;stroke-width:0.8"/>
<line x1="268.51851851851745" y1="-400.93768693724013" x2="277.7777777777767" y2="-416.97519441472974" style="stroke:black;stroke-width:0.8"/>
<line x1="277.7777777777767" y1="-416.97519441472974" x2="259.25925925925816" y2="-416.97519441472974" style="stroke:black;stroke-width:0.8"/>
<line x1="259.25925925925816" y1="-416.97519441472974" x2="249.9999999999989" y2="-433.01270189221935" style="stroke:black;stroke-width:0.8"/>
<line x1="249.9999999999989" y1="-433.01270189221935" x2="240.74074074073962" y2="-416.97519441472974" style="stroke:black;stroke-width:0.8"/>
<line x1="240.74074074073962" y1="-416.97519441472974" x2="222.22222222222112" y2="-416.97519441472974" style="stroke:black;stroke-width:0.8"/>
<line x1="222.22222222222112" y1="-416.97519441472974" x2="231.4814814814804" y2="-400.93768693724013" style="stroke:black;stroke-width:0.8"/>
<line x1="231.4814814814804" y1="-400.93768693724013" x2="222.22222222222112" y2="-384.9001794597505" style="stroke:black;stroke-width:0.8"/>
<line x1="222.22222222222112" y1="-384.9001794597505" x2="203.70370370370262" y2="-384.9001794597505" style="stroke:black;stroke-width:0.8"/>
<line x1="203.70370370370262" y1="-384.9001794597505" x2="194.44444444444335" y2="-400.93768693724013" style="stroke:black;stroke-width:0.8"/>
<line x1="194.44444444444335" y1="-400.93768693724013" x2="185.18518518518408" y2="-384.9001794597505" style="stroke:black;stroke-width:0.8"/>
<line x1="185.18518518518408" y1="-384.9001794597505" x2="166.66666666666558" y2="-384.9001794597505" style="stroke:black;stroke-width:0.8"/>
<line x1="166.66666666666558" y1="-384.9001794597505" x2="175.92592592592484" y2="-368.8626719822609" style="stroke:black;stroke-width:0.8"/>
<line x1="175.92592592592484" y1="-368.8626719822609" x2="166.66666666666558" y2="-352.8251645047713" style="stroke:black;stroke-width:0.8"/>
<line x1="166.66666666666558" y1="-352.8251645047713" x2="185.18518518518408" y2="-352.8251645047713" style="stroke:black;stroke-width:0.8"/>
<line x1="185.18518518518408" y1="-352.8251645047713" x2="194.44444444444335" y2="-336.7876570272817" style="stroke:black;stroke-width:0.8"/>
<line x1="194.44444444444335" y1="-336.7876570272817" x2="185.18518518518408" y2="-320.75014954979207" style="stroke:black;stroke-width:0.8"/>
<line x1="185.18518518518408" y1="-320.75014954979207" x2="166.66666666666558" y2="-320.75014954979207" style="stroke:black;stroke-width:0.8"/>
<line x1="166.66666666666558" y1="-320.75014954979207" x2="175.92592592592484" y2="-304.71264207230246" style="stroke:black;stroke-width:0.8"/>
<line x1="175.92592592592484" y1="-304.71264207230246" x2="166.66666666666558" y2="-288.67513459481285" style="stroke:black;stroke-width:0.8"/>
<line x1="166.66666666666558" y1="-288.67513459481285" x2="148.14814814814707" y2="-288.67513459481285" style="stroke:black;stroke-width:0.8"/>
<line x1="148.14814814814707" y1="-288.67513459481285" x2="138.8888888888878" y2="-304.71264207230246" style="stroke:black;stroke-width:0.8"/>
<line x1="138.8888888888878" y1="-304.71264207230246" x2="129.62962962962854" y2="-288.67513459481285" style="stroke:black;stroke-width:0.8"/>
<line x1="129.62962962962854" y1="-288.67513459481285" x2="111.11111111111002" y2="-288.67513459481285" style="stroke:black;stroke-width:0.8"/>
<line x1="111.11111111111002" y1="-288.67513459481285" x2="101.85185185185075" y2="-304.71264207230246" style="stroke:black;stroke-width:0.8"/>
<line x1="101.85185185185075" y1="-304.71264207230246" x2="111.11111111111" y2="-320.75014954979207" style="stroke:black;stroke-width:0.8"/>
<line x1="111.11111111111" y1="-320.75014954979207" x2="92.59259259259149" y2="-320.75014954979207" style="stroke:black;stroke-width:0.8"/>
<line x1="92.59259259259149" y1="-320.75014954979207" x2="83.33333333333222" y2="-336.7876570272817" style="stroke:black;stroke-width:0.8"/>
<line x1="83.33333333333222" y1="-336.7876570272817" x2="74.07407407407297" y2="-320.75014954979207" style="stroke:black;stroke-width:0.8"/>
<line x1="74.07407407407297" y1="-320.75014954979207" x2="55.55555555555445" y2="-320.75014954979207" style="stroke:black;stroke-width:0.8"/>
<line x1="55.55555555555445" y1="-320.75014954979207" x2="64.8148148148137" y2="-304.71264207230246" style="stroke:black;stroke-width:0.8"/>
<line x1="64.8148148148137" y1="-304.71264207230246" x2="55.55555555555445" y2="-288.67513459481285" style="stroke:black;stroke-width:0.8"/>
<line x1="55.55555555555445" y1="-288.67513459481285" x2="37.03703703703593" y2="-288.67513459481285" style="stroke:black;stroke-width:0.8"/>
<line x1="37.03703703703593" y1="-288.67513459481285" x2="27.777777777776663" y2="-304.71264207230246" style="stroke:black;stroke-width:0.8"/>
<line x1="27.777777777776663" y1="-304.71264207230246" x2="18.51851851851741" y2="-288.67513459481285" style="stroke:black;stroke-width:0.8"/>
<line x1="18.51851851851741" y1="-288.67513459481285" x2="-1.1048939541069558e-12" y2="-288.67513459481285" style="stroke:black;stroke-width:0.8"/>
<line x1="-1.1048939541069558e-12" y1="-288.67513459481285" x2="9.259259259258155" y2="-272.63762711732323" style="stroke:black;stroke-width:0.8"/>
<line x1="9.259259259258155" y1="-272.63762711732323" x2="-1.099564883588755e-12" y2="-256.6001196398336" style="stroke:black;stroke-width:0.8"/>
<line x1="-1.099564883588755e-12" y1="-256.6001196398336" x2="18.518518518517418" y2="-256.6001196398336" style="stroke:black;stroke-width:0.8"/>
<line x1="18.518518518517418" y1="-256.6001196398336" x2="27.777777777776677" y2="-240.562612162344" style="stroke:black;stroke-width:0.8"/>
<line x1="27.777777777776677" y1="-240.562612162344" x2="18.518518518517425" y2="-224.5251046848544" style="stroke:black;stroke-width:0.8"/>
<line x1="18.518518518517425" y1="-224.5251046848544" x2="-1.0906830993917538e-12" y2="-224.5251046848544" style="stroke:black;stroke-width:0.8"/>
<line x1="-1.0906830993917538e-12" y1="-224.5251046848544" x2="9.259259259258169" y2="-208.4875972073648" style="stroke:black;stroke-width:0.8"/>
<line x1="9.259259259258169" y1="-208.4875972073648" x2="-1.085354028873553e-12" y2="-192.45008972987517" style="stroke:black;stroke-width:0.8"/>
<line x1="-1.085354028873553e-12" y1="-192.45008972987517" x2="18.518518518517432" y2="-192.45008972987517" style="stroke:black;stroke-width:0.8"/>
<line x1="18.518518518517432" y1="-192.45008972987517" x2="27.77777777777669" y2="-176.41258225238556" style="stroke:black;stroke-width:0.8"/>
<line x1="27.77777777777669" y1="-176.41258225238556" x2="37.03703703703595" y2="-192.45008972987517" style="stroke:black;stroke-width:0.8"/>
<line x1="37.03703703703595" y1="-192.45008972987517" x2="55.55555555555446" y2="-192.45008972987517" style="stroke:black;stroke-width:0.8"/>
<line x1="55.55555555555446" y1="-192.45008972987517" x2="64.81481481481373" y2="-176.41258225238556" style="stroke:black;stroke-width:0.8"/>
<line x1="64.81481481481373" y1="-176.41258225238556" x2="55.55555555555448" y2="-160.37507477489595" style="stroke:black;stroke-width:0.8"/>
<line x1="55.55555555555448" y1="-160.37507477489595" x2="74.074074074073" y2="-160.37507477489595" style="stroke:black;stroke-width:0.8"/>
<line x1="74.074074074073" y1="-160.37507477489595" x2="83.33333333333226" y2="-144.33756729740634" style="stroke:black;stroke-width:0.8"/>
<line x1="83.33333333333226" y1="-144.33756729740634" x2="74.07407407407301" y2="-128.30005981991673" style="stroke:black;stroke-width:0.8"/>
<line x1="74.07407407407301" y1="-128.30005981991673" x2="55.55555555555449" y2="-128.30005981991673" style="stroke:black;stroke-width:0.8"/>
<line x1="55.55555555555449" y1="-128.30005981991673" x2="64.81481481481376" y2="-112.26255234242713" style="stroke:black;stroke-width:0.8"/>
<line x1="64.81481481481376" y1="-112.26255234242713" x2="55.555555555554506" y2="-96.22504486493753" style="stroke:black;stroke-width:0.8"/>
<line x1="55.555555555554506" y1="-96.22504486493753" x2="37.03703703703599" y2="-96.22504486493753" style="stroke:black;stroke-width:0.8"/>
<line x1="37.03703703703599" y1="-96.22504486493753" x2="27.77777777777672" y2="-112.26255234242713" style="stroke:black;stroke-width:0.8"/>
<line x1="27.77777777777672" y1="-112.26255234242713" x2="18.518518518517467" y2="-96.22504486493753" style="stroke:black;stroke-width:0.8"/>
<line x1="18.518518518517467" y1="-96.22504486493753" x2="-1.0480505352461478e-12" y2="-96.22504486493753" style="stroke:black;stroke-width:0.8"/>
<line x1="-1.0480505352461478e-12" y1="-96.22504486493753" x2="9.259259259258211" y2="-80.18753738744793" style="stroke:black;stroke-width:0.8"/>
<line x1="9.259259259258211" y1="-80.18753738744793" x2="-1.042721464727947e-12" y2="-64.15002990995833" style="stroke:black;stroke-width:0.8"/>
<line x1="-1.042721464727947e-12" y1="-64.15002990995833" x2="18.518518518517475" y2="-64.15002990995833" style="stroke:black;stroke-width:0.8"/>
<line x1="18.518518518517475" y1="-64.15002990995833" x2="27.777777777776734" y2="-48.11252243246874" style="stroke:black;stroke-width:0.8"/>
<line x1="27.777777777776734" y1="-48.11252243246874" x2="18.51851851851748" y2="-32.07501495497913" style="stroke:black;stroke-width:0.8"/>
<line x1="18.51851851851748" y1="-32.07501495497913" x2="-1.0338396805309458e-12" y2="-32.07501495497913" style="stroke:black;stroke-width:0.8"/>
<line x1="-1.0338396805309458e-12" y1="-32.07501495497913" x2="9.259259259258226" y2="-16.03750747748953" style="stroke:black;stroke-width:0.8"/>
<line x1="9.259259259258226" y1="-16.03750747748953" x2="-1.028510610012745e-12" y2="7.460698725481052e-14" style="stroke:black;stroke-width:0.8"/>
</svg>
