<?xml version="1.0" encoding="UTF-8" standalone="no"?>
<!DOCTYPE svg PUBLIC "-//W3C//DTD SVG 1.1//EN" "http://www.w3.org/Graphics/SVG/1.1/DTD/svg11.dtd">
<svg xmlns="http://www.w3.org/2000/svg" version="1.1" width="1000" height="1000">
<line x1="0" y1="0" x2="300.0" y2="0.0" style="stroke:black;stroke-width:0.8"/>
<line x1="300.0" y1="0.0" x2="150.00000000000006" y2="259.80762113533166" style="stroke:black;stroke-width:0.8"/>
<line x1="150.00000000000006" y1="259.80762113533166" x2="-8.526512829121202e-14" y2="1.7053025658242404e-13" style="stroke:black;stroke-width:0.8"/>
<line x1="10.392304845413179" y1="6.00000000000017" x2="290.39230484541315" y2="6.00000000000017" style="stroke:black;stroke-width:0.8"/>
<line x1="290.39230484541315" y1="6.00000000000017" x2="150.3923048454132" y2="248.48711305964304" style="stroke:black;stroke-width:0.8"/>
<line x1="150.3923048454132" y1="248.48711305964304" x2="10.392304845413094" y2="6.000000000000284" style="stroke:black;stroke-width:0.8"/>
<line x1="20.784609690826358" y1="12.000000000000284" x2="280.78460969082636" y2="12.000000000000284" style="stroke:black;stroke-width:0.8"/>
<line x1="280.78460969082636" y1="12.000000000000284" x2="150.78460969082641" y2="237.1666049839544" style="stroke:black;stroke-width:0.8"/>
<line x1="150.78460969082641" y1="237.1666049839544" x2="20.7846096908263" y2="12.000000000000398" style="stroke:black;stroke-width:0.8"/>
<line x1="31.176914536239565" y1="18.000000000000398" x2="271.17691453623956" y2="18.000000000000398" style="stroke:black;stroke-width:0.8"/>
<line x1="271.17691453623956" y1="18.000000000000398" x2="151.17691453623962" y2="225.8460969082657" style="stroke:black;stroke-width:0.8"/>
<line x1="151.17691453623962" y1="225.8460969082657" x2="31.176914536239508" y2="18.000000000000483" style="stroke:black;stroke-width:0.8"/>
<line x1="41.56921938165277" y1="24.000000000000483" x2="261.5692193816528" y2="24.000000000000483" style="stroke:black;stroke-width:0.8"/>
<line x1="261.5692193816528" y1="24.000000000000483" x2="151.56921938165283" y2="214.52558883257703" style="stroke:black;stroke-width:0.8"/>
<line x1="151.56921938165283" y1="214.52558883257703" x2="41.56921938165273" y2="24.000000000000597" style="stroke:black;stroke-width:0.8"/>
<line x1="51.96152422706599" y1="30.000000000000597" x2="251.96152422706598" y2="30.000000000000597" style="stroke:black;stroke-width:0.8"/>
<line x1="251.96152422706598" y1="30.000000000000597" x2="151.96152422706604" y2="203.20508075688835" style="stroke:black;stroke-width:0.8"/>
<line x1="151.96152422706604" y1="203.20508075688835" x2="51.96152422706595" y2="30.000000000000682" style="stroke:black;stroke-width:0.8"/>
<line x1="62.353829072479215" y1="36.00000000000068" x2="242.35382907247921" y2="36.00000000000068" style="stroke:black;stroke-width:0.8"/>
<line x1="242.35382907247921" y1="36.00000000000068" x2="152.35382907247924" y2="191.88457268119967" style="stroke:black;stroke-width:0.8"/>
<line x1="152.35382907247924" y1="191.88457268119967" x2="62.35382907247916" y2="36.00000000000077" style="stroke:black;stroke-width:0.8"/>
<line x1="72.74613391789242" y1="42.00000000000077" x2="232.74613391789242" y2="42.00000000000077" style="stroke:black;stroke-width:0.8"/>
<line x1="232.74613391789242" y1="42.00000000000077" x2="152.74613391789245" y2="180.564064605511" style="stroke:black;stroke-width:0.8"/>
<line x1="152.74613391789245" y1="180.564064605511" x2="72.74613391789238" y2="42.00000000000085" style="stroke:black;stroke-width:0.8"/>
<line x1="83.13843876330564" y1="48.00000000000085" x2="223.13843876330566" y2="48.00000000000085" style="stroke:black;stroke-width:0.8"/>
<line x1="223.13843876330566" y1="48.00000000000085" x2="153.1384387633057" y2="169.24355652982229" style="stroke:black;stroke-width:0.8"/>
<line x1="153.1384387633057" y1="169.24355652982229" x2="83.13843876330563" y2="48.00000000000091" style="stroke:black;stroke-width:0.8"/>
<line x1="93.5307436087189" y1="54.00000000000091" x2="213.5307436087189" y2="54.00000000000091" style="stroke:black;stroke-width:0.8"/>
<line x1="213.5307436087189" y1="54.00000000000091" x2="153.53074360871892" y2="157.92304845413355" style="stroke:black;stroke-width:0.8"/>
<line x1="153.53074360871892" y1="157.92304845413355" x2="93.53074360871886" y2="54.00000000000094" style="stroke:black;stroke-width:0.8"/>
<line x1="103.92304845413213" y1="60.00000000000094" x2="203.92304845413213" y2="60.00000000000094" style="stroke:black;stroke-width:0.8"/>
<line x1="203.92304845413213" y1="60.00000000000094" x2="153.92304845413216" y2="146.60254037844481" style="stroke:black;stroke-width:0.8"/>
<line x1="153.92304845413216" y1="146.60254037844481" x2="103.92304845413211" y2="60.00000000000098" style="stroke:black;stroke-width:0.8"/>
<line x1="114.31535329954538" y1="66.00000000000098" x2="194.3153532995454" y2="66.00000000000098" style="stroke:black;stroke-width:0.8"/>
<line x1="194.3153532995454" y1="66.00000000000098" x2="154.3153532995454" y2="135.28203230275608" style="stroke:black;stroke-width:0.8"/>
<line x1="154.3153532995454" y1="135.28203230275608" x2="114.31535329954536" y2="66.00000000000101" style="stroke:black;stroke-width:0.8"/>
<line x1="124.70765814495863" y1="72.00000000000101" x2="184.70765814495863" y2="72.00000000000101" style="stroke:black;stroke-width:0.8"/>
<line x1="184.70765814495863" y1="72.00000000000101" x2="154.70765814495866" y2="123.96152422706734" style="stroke:black;stroke-width:0.8"/>
<line x1="154.70765814495866" y1="123.96152422706734" x2="124.70765814495863" y2="72.00000000000104" style="stroke:black;stroke-width:0.8"/>
<line x1="135.0999629903719" y1="78.00000000000104" x2="175.0999629903719" y2="78.00000000000104" style="stroke:black;stroke-width:0.8"/>
<line x1="175.0999629903719" y1="78.00000000000104" x2="155.0999629903719" y2="112.6410161513786" style="stroke:black;stroke-width:0.8"/>
<line x1="155.0999629903719" y1="112.6410161513786" x2="135.09996299037186" y2="78.00000000000105" style="stroke:black;stroke-width:0.8"/>
<line x1="145.49226783578513" y1="84.00000000000105" x2="165.49226783578513" y2="84.00000000000105" style="stroke:black;stroke-width:0.8"/>
<line x1="165.49226783578513" y1="84.00000000000105" x2="155.49226783578513" y2="101.32050807568983" style="stroke:black;stroke-width:0.8"/>
<line x1="155.49226783578513" y1="101.32050807568983" x2="145.49226783578513" y2="84.00000000000107" style="stroke:black;stroke-width:0.8"/>
<line x1="155.8845726811984" y1="90.00000000000107" x2="155.8845726811984" y2="90.00000000000107" style="stroke:black;stroke-width:0.8"/>
<line x1="155.8845726811984" y1="90.00000000000107" x2="155.8845726811984" y2="90.00000000000107" style="stroke:black;stroke-width:0.8"/>
<line x1="155.8845726811984" y1="90.00000000000107" x2="155.8845726811984" y2="90.00000000000107" style="stroke:black;stroke-width:0.8"/>
</svg>
