<?xml version="1.0" encoding="UTF-8" standalone="no"?>
<!DOCTYPE svg PUBLIC "-//W3C//DTD SVG 1.1//EN" "http://www.w3.org/Graphics/SVG/1.1/DTD/svg11.dtd">
<svg xmlns="http://www.w3.org/2000/svg" version="1.1" >
<g><line x1="-100" y1="0" x2="100" y2="0" style="stroke:black;stroke-width:0.8"/>
<line x1="0" y1="100" x2="0" y2="-100" style="stroke:black;stroke-width:0.8"/>
<line x1="10" y1="0" x2="0" y2="90" style="stroke:lightblue;stroke-width:0.8"/>
<line x1="10" y1="0" x2="0" y2="-90" style="stroke:mediumblue;stroke-width:0.8"/>
<line x1="0" y1="10" x2="90" y2="0" style="stroke:lime;stroke-width:0.8"/>
<line x1="0" y1="10" x2="-90" y2="0" style="stroke:skyblue;stroke-width:0.8"/>
<line x1="-10" y1="0" x2="0" y2="-90" style="stroke:lavender;stroke-width:0.8"/>
<line x1="-10" y1="0" x2="0" y2="90" style="stroke:sienna;stroke-width:0.8"/>
<line x1="0" y1="-10" x2="-90" y2="0" style="stroke:lightyellow;stroke-width:0.8"/>
<line x1="0" y1="-10" x2="90" y2="0" style="stroke:mediumturquoise;stroke-width:0.8"/>
<line x1="20" y1="0" x2="0" y2="80" style="stroke:orangered;stroke-width:0.8"/>
<line x1="20" y1="0" x2="0" y2="-80" style="stroke:greenyellow;stroke-width:0.8"/>
<line x1="0" y1="20" x2="80" y2="0" style="stroke:tan;stroke-width:0.8"/>
<line x1="0" y1="20" x2="-80" y2="0" style="stroke:thistle;stroke-width:0.8"/>
<line x1="-20" y1="0" x2="0" y2="-80" style="stroke:firebrick;stroke-width:0.8"/>
<line x1="-20" y1="0" x2="0" y2="80" style="stroke:orangered;stroke-width:0.8"/>
<line x1="0" y1="-20" x2="-80" y2="0" style="stroke:mediumturquoise;stroke-width:0.8"/>
<line x1="0" y1="-20" x2="80" y2="0" style="stroke:mediumspringgreen;stroke-width:0.8"/>
<line x1="30" y1="0" x2="0" y2="70" style="stroke:darkgoldenrod;stroke-width:0.8"/>
<line x1="30" y1="0" x2="0" y2="-70" style="stroke:springgreen;stroke-width:0.8"/>
<line x1="0" y1="30" x2="70" y2="0" style="stroke:darkblue;stroke-width:0.8"/>
<line x1="0" y1="30" x2="-70" y2="0" style="stroke:darkred;stroke-width:0.8"/>
<line x1="-30" y1="0" x2="0" y2="-70" style="stroke:sandybrown;stroke-width:0.8"/>
<line x1="-30" y1="0" x2="0" y2="70" style="stroke:darkslateblue;stroke-width:0.8"/>
<line x1="0" y1="-30" x2="-70" y2="0" style="stroke:moccasin;stroke-width:0.8"/>
<line x1="0" y1="-30" x2="70" y2="0" style="stroke:mediumorchid;stroke-width:0.8"/>
<line x1="40" y1="0" x2="0" y2="60" style="stroke:plum;stroke-width:0.8"/>
<line x1="40" y1="0" x2="0" y2="-60" style="stroke:pink;stroke-width:0.8"/>
<line x1="0" y1="40" x2="60" y2="0" style="stroke:tan;stroke-width:0.8"/>
<line x1="0" y1="40" x2="-60" y2="0" style="stroke:magenta;stroke-width:0.8"/>
<line x1="-40" y1="0" x2="0" y2="-60" style="stroke:maroon;stroke-width:0.8"/>
<line x1="-40" y1="0" x2="0" y2="60" style="stroke:azure;stroke-width:0.8"/>
<line x1="0" y1="-40" x2="-60" y2="0" style="stroke:khaki;stroke-width:0.8"/>
<line x1="0" y1="-40" x2="60" y2="0" style="stroke:sandybrown;stroke-width:0.8"/>
<line x1="50" y1="0" x2="0" y2="50" style="stroke:turquoise;stroke-width:0.8"/>
<line x1="50" y1="0" x2="0" y2="-50" style="stroke:olivedrab;stroke-width:0.8"/>
<line x1="0" y1="50" x2="50" y2="0" style="stroke:lime;stroke-width:0.8"/>
<line x1="0" y1="50" x2="-50" y2="0" style="stroke:tan;stroke-width:0.8"/>
<line x1="-50" y1="0" x2="0" y2="-50" style="stroke:royalblue;stroke-width:0.8"/>
<line x1="-50" y1="0" x2="0" y2="50" style="stroke:lawngreen;stroke-width:0.8"/>
<line x1="0" y1="-50" x2="-50" y2="0" style="stroke:mediumseagreen;stroke-width:0.8"/>
<line x1="0" y1="-50" x2="50" y2="0" style="stroke:mediumorchid;stroke-width:0.8"/>
<line x1="60" y1="0" x2="0" y2="40" style="stroke:bisque;stroke-width:0.8"/>
<line x1="60" y1="0" x2="0" y2="-40" style="stroke:mediumseagreen;stroke-width:0.8"/>
<line x1="0" y1="60" x2="40" y2="0" style="stroke:palevioletred;stroke-width:0.8"/>
<line x1="0" y1="60" x2="-40" y2="0" style="stroke:paleturquoise;stroke-width:0.8"/>
<line x1="-60" y1="0" x2="0" y2="-40" style="stroke:slateblue;stroke-width:0.8"/>
<line x1="-60" y1="0" x2="0" y2="40" style="stroke:lightgoldenrodyellow;stroke-width:0.8"/>
<line x1="0" y1="-60" x2="-40" y2="0" style="stroke:olivedrab;stroke-width:0.8"/>
<line x1="0" y1="-60" x2="40" y2="0" style="stroke:darkturquoise;stroke-width:0.8"/>
<line x1="70" y1="0" x2="0" y2="30" style="stroke:mediumvioletred;stroke-width:0.8"/>
<line x1="70" y1="0" x2="0" y2="-30" style="stroke:slategray;stroke-width:0.8"/>
<line x1="0" y1="70" x2="30" y2="0" style="stroke:cornsilk;stroke-width:0.8"/>
<line x1="0" y1="70" x2="-30" y2="0" style="stroke:maroon;stroke-width:0.8"/>
<line x1="-70" y1="0" x2="0" y2="-30" style="stroke:palevioletred;stroke-width:0.8"/>
<line x1="-70" y1="0" x2="0" y2="30" style="stroke:darkkhaki;stroke-width:0.8"/>
<line x1="0" y1="-70" x2="-30" y2="0" style="stroke:slategray;stroke-width:0.8"/>
<line x1="0" y1="-70" x2="30" y2="0" style="stroke:grey;stroke-width:0.8"/>
<line x1="80" y1="0" x2="0" y2="20" style="stroke:aquamarine;stroke-width:0.8"/>
<line x1="80" y1="0" x2="0" y2="-20" style="stroke:cornflowerblue;stroke-width:0.8"/>
<line x1="0" y1="80" x2="20" y2="0" style="stroke:lightsteelblue;stroke-width:0.8"/>
<line x1="0" y1="80" x2="-20" y2="0" style="stroke:darkseagreen;stroke-width:0.8"/>
<line x1="-80" y1="0" x2="0" y2="-20" style="stroke:mistyrose;stroke-width:0.8"/>
<line x1="-80" y1="0" x2="0" y2="20" style="stroke:deeppink;stroke-width:0.8"/>
<line x1="0" y1="-80" x2="-20" y2="0" style="stroke:darkslategrey;stroke-width:0.8"/>
<line x1="0" y1="-80" x2="20" y2="0" style="stroke:grey;stroke-width:0.8"/>
<line x1="90" y1="0" x2="0" y2="10" style="stroke:lime;stroke-width:0.8"/>
<line x1="90" y1="0" x2="0" y2="-10" style="stroke:grey;stroke-width:0.8"/>
<line x1="0" y1="90" x2="10" y2="0" style="stroke:silver;stroke-width:0.8"/>
<line x1="0" y1="90" x2="-10" y2="0" style="stroke:peru;stroke-width:0.8"/>
<line x1="-90" y1="0" x2="0" y2="-10" style="stroke:plum;stroke-width:0.8"/>
<line x1="-90" y1="0" x2="0" y2="10" style="stroke:darkslategrey;stroke-width:0.8"/>
<line x1="0" y1="-90" x2="-10" y2="0" style="stroke:sandybrown;stroke-width:0.8"/>
<line x1="0" y1="-90" x2="10" y2="0" style="stroke:salmon;stroke-width:0.8"/>
</g></svg>
