<?xml version="1.0" encoding="utf-8" ?>
<svg baseProfile="full" height="100%" version="1.1" width="100%" xmlns="http://www.w3.org/2000/svg" xmlns:ev="http://www.w3.org/2001/xml-events" xmlns:xlink="http://www.w3.org/1999/xlink"><defs /><circle cx="50" cy="50.0" r="3" /><line stroke="rgb(0%,0%,0%)" x1="70.0" x2="30.0" y1="84.64101615137756" y2="84.64101615137756" /><line stroke="rgb(0%,0%,0%)" x1="30.0" x2="10" y1="84.64101615137756" y2="50.0" /><line stroke="rgb(0%,0%,0%)" x1="10" x2="30.0" y1="50.0" y2="15.35898384862245" /><line stroke="rgb(0%,0%,0%)" x1="10" x2="30.0" y1="50.0" y2="15.35898384862245" /><line stroke="rgb(0%,0%,0%)" x1="30.0" x2="70.0" y1="15.35898384862245" y2="15.35898384862245" /><line stroke="rgb(0%,0%,0%)" x1="70.0" x2="90" y1="15.35898384862245" y2="50.0" /><circle cx="170" cy="50.0" r="3" /><line stroke="rgb(0%,0%,0%)" x1="210" x2="190.0" y1="50.0" y2="84.64101615137756" /><line stroke="rgb(0%,0%,0%)" x1="130" x2="150.0" y1="50.0" y2="15.35898384862245" /><line stroke="rgb(0%,0%,0%)" x1="150.0" x2="190.0" y1="15.35898384862245" y2="15.35898384862245" /><line stroke="rgb(0%,0%,0%)" x1="190.0" x2="210" y1="15.35898384862245" y2="50.0" /><circle cx="290" cy="50.0" r="3" /><line stroke="rgb(0%,0%,0%)" x1="330" x2="310.0" y1="50.0" y2="84.64101615137756" /><line stroke="rgb(0%,0%,0%)" x1="270.0" x2="250" y1="84.64101615137756" y2="50.0" /><line stroke="rgb(0%,0%,0%)" x1="250" x2="270.0" y1="50.0" y2="15.35898384862245" /><line stroke="rgb(0%,0%,0%)" x1="270.0" x2="310.0" y1="15.35898384862245" y2="15.35898384862245" /><line stroke="rgb(0%,0%,0%)" x1="310.0" x2="330" y1="15.35898384862245" y2="50.0" /><circle cx="410" cy="50.0" r="3" /><line stroke="rgb(0%,0%,0%)" x1="430.0" x2="390.0" y1="84.64101615137756" y2="84.64101615137756" /><line stroke="rgb(0%,0%,0%)" x1="390.0" x2="370" y1="84.64101615137756" y2="50.0" /><line stroke="rgb(0%,0%,0%)" x1="370" x2="390.0" y1="50.0" y2="15.35898384862245" /><line stroke="rgb(0%,0%,0%)" x1="390.0" x2="430.0" y1="15.35898384862245" y2="15.35898384862245" /><line stroke="rgb(0%,0%,0%)" x1="430.0" x2="450" y1="15.35898384862245" y2="50.0" /><circle cx="530" cy="50.0" r="3" /><line stroke="rgb(0%,0%,0%)" x1="570" x2="550.0" y1="50.0" y2="84.64101615137756" /><line stroke="rgb(0%,0%,0%)" x1="510.0" x2="490" y1="84.64101615137756" y2="50.0" /><line stroke="rgb(0%,0%,0%)" x1="490" x2="510.0" y1="50.0" y2="15.35898384862245" /><line stroke="rgb(0%,0%,0%)" x1="510.0" x2="550.0" y1="15.35898384862245" y2="15.35898384862245" /><line stroke="rgb(0%,0%,0%)" x1="550.0" x2="570" y1="15.35898384862245" y2="50.0" /><circle cx="650" cy="50.0" r="3" /><line stroke="rgb(0%,0%,0%)" x1="690" x2="670.0" y1="50.0" y2="84.64101615137756" /><line stroke="rgb(0%,0%,0%)" x1="630.0" x2="610" y1="84.64101615137756" y2="50.0" /><line stroke="rgb(0%,0%,0%)" x1="610" x2="630.0" y1="50.0" y2="15.35898384862245" /><line stroke="rgb(0%,0%,0%)" x1="630.0" x2="670.0" y1="15.35898384862245" y2="15.35898384862245" /><line stroke="rgb(0%,0%,0%)" x1="670.0" x2="690" y1="15.35898384862245" y2="50.0" /><circle cx="110.0" cy="84.64101615137756" r="3" /><line stroke="rgb(0%,0%,0%)" x1="150.0" x2="130.0" y1="84.64101615137756" y2="119.28203230275511" /><line stroke="rgb(0%,0%,0%)" x1="130.0" x2="90.0" y1="119.28203230275511" y2="119.28203230275511" /><line stroke="rgb(0%,0%,0%)" x1="90.0" x2="130.0" y1="50.00000000000001" y2="50.00000000000001" /><circle cx="230.0" cy="84.64101615137756" r="3" /><line stroke="rgb(0%,0%,0%)" x1="270.0" x2="250.0" y1="84.64101615137756" y2="119.28203230275511" /><line stroke="rgb(0%,0%,0%)" x1="190.0" x2="210.0" y1="84.64101615137756" y2="50.00000000000001" /><line stroke="rgb(0%,0%,0%)" x1="210.0" x2="250.0" y1="50.00000000000001" y2="50.00000000000001" /><line stroke="rgb(0%,0%,0%)" x1="250.0" x2="270.0" y1="50.00000000000001" y2="84.64101615137756" /><circle cx="350.0" cy="84.64101615137756" r="3" /><line stroke="rgb(0%,0%,0%)" x1="370.0" x2="330.0" y1="119.28203230275511" y2="119.28203230275511" /><line stroke="rgb(0%,0%,0%)" x1="310.0" x2="330.0" y1="84.64101615137756" y2="50.00000000000001" /><line stroke="rgb(0%,0%,0%)" x1="330.0" x2="370.0" y1="50.00000000000001" y2="50.00000000000001" /><line stroke="rgb(0%,0%,0%)" x1="370.0" x2="390.0" y1="50.00000000000001" y2="84.64101615137756" /><circle cx="470.0" cy="84.64101615137756" r="3" /><line stroke="rgb(0%,0%,0%)" x1="490.0" x2="450.0" y1="119.28203230275511" y2="119.28203230275511" /><line stroke="rgb(0%,0%,0%)" x1="450.0" x2="490.0" y1="50.00000000000001" y2="50.00000000000001" /><line stroke="rgb(0%,0%,0%)" x1="490.0" x2="510.0" y1="50.00000000000001" y2="84.64101615137756" /><circle cx="590.0" cy="84.64101615137756" r="3" /><line stroke="rgb(0%,0%,0%)" x1="570.0" x2="550.0" y1="119.28203230275511" y2="84.64101615137756" /><line stroke="rgb(0%,0%,0%)" x1="550.0" x2="570.0" y1="84.64101615137756" y2="50.00000000000001" /><line stroke="rgb(0%,0%,0%)" x1="570.0" x2="610.0" y1="50.00000000000001" y2="50.00000000000001" /><line stroke="rgb(0%,0%,0%)" x1="610.0" x2="630.0" y1="50.00000000000001" y2="84.64101615137756" /><circle cx="710.0" cy="84.64101615137756" r="3" /><line stroke="rgb(0%,0%,0%)" x1="750.0" x2="730.0" y1="84.64101615137756" y2="119.28203230275511" /><line stroke="rgb(0%,0%,0%)" x1="670.0" x2="690.0" y1="84.64101615137756" y2="50.00000000000001" /><line stroke="rgb(0%,0%,0%)" x1="690.0" x2="730.0" y1="50.00000000000001" y2="50.00000000000001" /><line stroke="rgb(0%,0%,0%)" x1="730.0" x2="750.0" y1="50.00000000000001" y2="84.64101615137756" /><circle cx="50" cy="119.2820323027551" r="3" /><line stroke="rgb(0%,0%,0%)" x1="90" x2="70.0" y1="119.2820323027551" y2="153.92304845413264" /><line stroke="rgb(0%,0%,0%)" x1="30.0" x2="10" y1="153.92304845413264" y2="119.2820323027551" /><line stroke="rgb(0%,0%,0%)" x1="10" x2="30.0" y1="119.2820323027551" y2="84.64101615137756" /><line stroke="rgb(0%,0%,0%)" x1="30.0" x2="70.0" y1="84.64101615137756" y2="84.64101615137756" /><circle cx="170" cy="119.2820323027551" r="3" /><line stroke="rgb(0%,0%,0%)" x1="210" x2="190.0" y1="119.2820323027551" y2="153.92304845413264" /><line stroke="rgb(0%,0%,0%)" x1="130" x2="150.0" y1="119.2820323027551" y2="84.64101615137756" /><circle cx="290" cy="119.2820323027551" r="3" /><line stroke="rgb(0%,0%,0%)" x1="310.0" x2="270.0" y1="153.92304845413264" y2="153.92304845413264" /><line stroke="rgb(0%,0%,0%)" x1="250" x2="270.0" y1="119.2820323027551" y2="84.64101615137756" /><circle cx="410" cy="119.2820323027551" r="3" /><line stroke="rgb(0%,0%,0%)" x1="390.0" x2="430.0" y1="84.64101615137756" y2="84.64101615137756" /><circle cx="530" cy="119.2820323027551" r="3" /><line stroke="rgb(0%,0%,0%)" x1="550.0" x2="510.0" y1="153.92304845413264" y2="153.92304845413264" /><line stroke="rgb(0%,0%,0%)" x1="550.0" x2="570" y1="84.64101615137756" y2="119.2820323027551" /><circle cx="650" cy="119.2820323027551" r="3" /><line stroke="rgb(0%,0%,0%)" x1="690" x2="670.0" y1="119.2820323027551" y2="153.92304845413264" /><line stroke="rgb(0%,0%,0%)" x1="630.0" x2="610" y1="153.92304845413264" y2="119.2820323027551" /><circle cx="110.0" cy="153.92304845413264" r="3" /><line stroke="rgb(0%,0%,0%)" x1="70.0" x2="90.0" y1="153.92304845413264" y2="119.28203230275508" /><line stroke="rgb(0%,0%,0%)" x1="90.0" x2="130.0" y1="119.28203230275508" y2="119.28203230275508" /><circle cx="230.0" cy="153.92304845413264" r="3" /><line stroke="rgb(0%,0%,0%)" x1="250.0" x2="210.0" y1="188.5640646055102" y2="188.5640646055102" /><line stroke="rgb(0%,0%,0%)" x1="190.0" x2="210.0" y1="153.92304845413264" y2="119.28203230275508" /><circle cx="350.0" cy="153.92304845413264" r="3" /><line stroke="rgb(0%,0%,0%)" x1="390.0" x2="370.0" y1="153.92304845413264" y2="188.5640646055102" /><line stroke="rgb(0%,0%,0%)" x1="330.0" x2="370.0" y1="119.28203230275508" y2="119.28203230275508" /><circle cx="470.0" cy="153.92304845413264" r="3" /><line stroke="rgb(0%,0%,0%)" x1="450.0" x2="430.0" y1="188.5640646055102" y2="153.92304845413264" /><line stroke="rgb(0%,0%,0%)" x1="450.0" x2="490.0" y1="119.28203230275508" y2="119.28203230275508" /><circle cx="590.0" cy="153.92304845413264" r="3" /><line stroke="rgb(0%,0%,0%)" x1="570.0" x2="550.0" y1="188.5640646055102" y2="153.92304845413264" /><line stroke="rgb(0%,0%,0%)" x1="610.0" x2="630.0" y1="119.28203230275508" y2="153.92304845413264" /><circle cx="710.0" cy="153.92304845413264" r="3" /><line stroke="rgb(0%,0%,0%)" x1="750.0" x2="730.0" y1="153.92304845413264" y2="188.5640646055102" /><line stroke="rgb(0%,0%,0%)" x1="730.0" x2="690.0" y1="188.5640646055102" y2="188.5640646055102" /><line stroke="rgb(0%,0%,0%)" x1="690.0" x2="670.0" y1="188.5640646055102" y2="153.92304845413264" /><line stroke="rgb(0%,0%,0%)" x1="670.0" x2="690.0" y1="153.92304845413264" y2="119.28203230275508" /><line stroke="rgb(0%,0%,0%)" x1="730.0" x2="750.0" y1="119.28203230275508" y2="153.92304845413264" /><circle cx="50" cy="188.5640646055102" r="3" /><line stroke="rgb(0%,0%,0%)" x1="90" x2="70.0" y1="188.5640646055102" y2="223.20508075688775" /><line stroke="rgb(0%,0%,0%)" x1="70.0" x2="30.0" y1="223.20508075688775" y2="223.20508075688775" /><line stroke="rgb(0%,0%,0%)" x1="30.0" x2="10" y1="223.20508075688775" y2="188.5640646055102" /><line stroke="rgb(0%,0%,0%)" x1="10" x2="30.0" y1="188.5640646055102" y2="153.92304845413264" /><circle cx="170" cy="188.5640646055102" r="3" /><line stroke="rgb(0%,0%,0%)" x1="150.0" x2="130" y1="223.20508075688775" y2="188.5640646055102" /><circle cx="290" cy="188.5640646055102" r="3" /><line stroke="rgb(0%,0%,0%)" x1="310.0" x2="270.0" y1="223.20508075688775" y2="223.20508075688775" /><line stroke="rgb(0%,0%,0%)" x1="270.0" x2="310.0" y1="153.92304845413264" y2="153.92304845413264" /><circle cx="410" cy="188.5640646055102" r="3" /><line stroke="rgb(0%,0%,0%)" x1="370" x2="390.0" y1="188.5640646055102" y2="153.92304845413264" /><line stroke="rgb(0%,0%,0%)" x1="430.0" x2="450" y1="153.92304845413264" y2="188.5640646055102" /><circle cx="530" cy="188.5640646055102" r="3" /><line stroke="rgb(0%,0%,0%)" x1="510.0" x2="550.0" y1="153.92304845413264" y2="153.92304845413264" /><line stroke="rgb(0%,0%,0%)" x1="550.0" x2="570" y1="153.92304845413264" y2="188.5640646055102" /><circle cx="650" cy="188.5640646055102" r="3" /><line stroke="rgb(0%,0%,0%)" x1="630.0" x2="610" y1="223.20508075688775" y2="188.5640646055102" /><line stroke="rgb(0%,0%,0%)" x1="670.0" x2="690" y1="153.92304845413264" y2="188.5640646055102" /><circle cx="110.0" cy="223.20508075688775" r="3" /><line stroke="rgb(0%,0%,0%)" x1="150.0" x2="130.0" y1="223.20508075688775" y2="257.8460969082653" /><line stroke="rgb(0%,0%,0%)" x1="70.0" x2="90.0" y1="223.20508075688775" y2="188.5640646055102" /><line stroke="rgb(0%,0%,0%)" x1="130.0" x2="150.0" y1="188.5640646055102" y2="223.20508075688775" /><circle cx="230.0" cy="223.20508075688775" r="3" /><line stroke="rgb(0%,0%,0%)" x1="250.0" x2="210.0" y1="257.8460969082653" y2="257.8460969082653" /><line stroke="rgb(0%,0%,0%)" x1="210.0" x2="250.0" y1="188.5640646055102" y2="188.5640646055102" /><circle cx="350.0" cy="223.20508075688775" r="3" /><line stroke="rgb(0%,0%,0%)" x1="330.0" x2="310.0" y1="257.8460969082653" y2="223.20508075688775" /><circle cx="470.0" cy="223.20508075688775" r="3" /><line stroke="rgb(0%,0%,0%)" x1="510.0" x2="490.0" y1="223.20508075688775" y2="257.8460969082653" /><line stroke="rgb(0%,0%,0%)" x1="450.0" x2="430.0" y1="257.8460969082653" y2="223.20508075688775" /><circle cx="590.0" cy="223.20508075688775" r="3" /><line stroke="rgb(0%,0%,0%)" x1="630.0" x2="610.0" y1="223.20508075688775" y2="257.8460969082653" /><line stroke="rgb(0%,0%,0%)" x1="610.0" x2="630.0" y1="188.5640646055102" y2="223.20508075688775" /><circle cx="710.0" cy="223.20508075688775" r="3" /><line stroke="rgb(0%,0%,0%)" x1="750.0" x2="730.0" y1="223.20508075688775" y2="257.8460969082653" /><line stroke="rgb(0%,0%,0%)" x1="730.0" x2="690.0" y1="257.8460969082653" y2="257.8460969082653" /><line stroke="rgb(0%,0%,0%)" x1="690.0" x2="730.0" y1="188.5640646055102" y2="188.5640646055102" /><line stroke="rgb(0%,0%,0%)" x1="730.0" x2="750.0" y1="188.5640646055102" y2="223.20508075688775" /><circle cx="50" cy="257.8460969082653" r="3" /><line stroke="rgb(0%,0%,0%)" x1="90" x2="70.0" y1="257.8460969082653" y2="292.4871130596428" /><line stroke="rgb(0%,0%,0%)" x1="30.0" x2="10" y1="292.4871130596428" y2="257.8460969082653" /><line stroke="rgb(0%,0%,0%)" x1="10" x2="30.0" y1="257.8460969082653" y2="223.20508075688772" /><line stroke="rgb(0%,0%,0%)" x1="30.0" x2="70.0" y1="223.20508075688772" y2="223.20508075688772" /><circle cx="170" cy="257.8460969082653" r="3" /><line stroke="rgb(0%,0%,0%)" x1="210" x2="190.0" y1="257.8460969082653" y2="292.4871130596428" /><line stroke="rgb(0%,0%,0%)" x1="130" x2="150.0" y1="257.8460969082653" y2="223.20508075688772" /><circle cx="290" cy="257.8460969082653" r="3" /><line stroke="rgb(0%,0%,0%)" x1="270.0" x2="310.0" y1="223.20508075688772" y2="223.20508075688772" /><line stroke="rgb(0%,0%,0%)" x1="310.0" x2="330" y1="223.20508075688772" y2="257.8460969082653" /><circle cx="410" cy="257.8460969082653" r="3" /><line stroke="rgb(0%,0%,0%)" x1="390.0" x2="370" y1="292.4871130596428" y2="257.8460969082653" /><line stroke="rgb(0%,0%,0%)" x1="430.0" x2="450" y1="223.20508075688772" y2="257.8460969082653" /><circle cx="530" cy="257.8460969082653" r="3" /><line stroke="rgb(0%,0%,0%)" x1="510.0" x2="490" y1="292.4871130596428" y2="257.8460969082653" /><line stroke="rgb(0%,0%,0%)" x1="490" x2="510.0" y1="257.8460969082653" y2="223.20508075688772" /><circle cx="650" cy="257.8460969082653" r="3" /><line stroke="rgb(0%,0%,0%)" x1="630.0" x2="610" y1="292.4871130596428" y2="257.8460969082653" /><line stroke="rgb(0%,0%,0%)" x1="610" x2="630.0" y1="257.8460969082653" y2="223.20508075688772" /><circle cx="110.0" cy="292.48711305964287" r="3" /><line stroke="rgb(0%,0%,0%)" x1="130.0" x2="90.0" y1="327.1281292110204" y2="327.1281292110204" /><line stroke="rgb(0%,0%,0%)" x1="70.0" x2="90.0" y1="292.48711305964287" y2="257.84609690826534" /><circle cx="230.0" cy="292.48711305964287" r="3" /><line stroke="rgb(0%,0%,0%)" x1="190.0" x2="210.0" y1="292.48711305964287" y2="257.84609690826534" /><line stroke="rgb(0%,0%,0%)" x1="210.0" x2="250.0" y1="257.84609690826534" y2="257.84609690826534" /><circle cx="350.0" cy="292.48711305964287" r="3" /><line stroke="rgb(0%,0%,0%)" x1="390.0" x2="370.0" y1="292.48711305964287" y2="327.1281292110204" /><line stroke="rgb(0%,0%,0%)" x1="370.0" x2="390.0" y1="257.84609690826534" y2="292.48711305964287" /><circle cx="470.0" cy="292.48711305964287" r="3" /><line stroke="rgb(0%,0%,0%)" x1="510.0" x2="490.0" y1="292.48711305964287" y2="327.1281292110204" /><line stroke="rgb(0%,0%,0%)" x1="490.0" x2="510.0" y1="257.84609690826534" y2="292.48711305964287" /><circle cx="590.0" cy="292.48711305964287" r="3" /><line stroke="rgb(0%,0%,0%)" x1="570.0" x2="550.0" y1="327.1281292110204" y2="292.48711305964287" /><line stroke="rgb(0%,0%,0%)" x1="610.0" x2="630.0" y1="257.84609690826534" y2="292.48711305964287" /><circle cx="710.0" cy="292.48711305964287" r="3" /><line stroke="rgb(0%,0%,0%)" x1="750.0" x2="730.0" y1="292.48711305964287" y2="327.1281292110204" /><line stroke="rgb(0%,0%,0%)" x1="690.0" x2="670.0" y1="327.1281292110204" y2="292.48711305964287" /><line stroke="rgb(0%,0%,0%)" x1="690.0" x2="730.0" y1="257.84609690826534" y2="257.84609690826534" /><line stroke="rgb(0%,0%,0%)" x1="730.0" x2="750.0" y1="257.84609690826534" y2="292.48711305964287" /><circle cx="50" cy="327.1281292110204" r="3" /><line stroke="rgb(0%,0%,0%)" x1="70.0" x2="30.0" y1="361.7691453623979" y2="361.7691453623979" /><line stroke="rgb(0%,0%,0%)" x1="30.0" x2="10" y1="361.7691453623979" y2="327.1281292110204" /><line stroke="rgb(0%,0%,0%)" x1="10" x2="30.0" y1="327.1281292110204" y2="292.48711305964287" /><circle cx="170" cy="327.1281292110204" r="3" /><line stroke="rgb(0%,0%,0%)" x1="210" x2="190.0" y1="327.1281292110204" y2="361.7691453623979" /><circle cx="290" cy="327.1281292110204" r="3" /><line stroke="rgb(0%,0%,0%)" x1="330" x2="310.0" y1="327.1281292110204" y2="361.7691453623979" /><line stroke="rgb(0%,0%,0%)" x1="270.0" x2="250" y1="361.7691453623979" y2="327.1281292110204" /><circle cx="410" cy="327.1281292110204" r="3" /><line stroke="rgb(0%,0%,0%)" x1="390.0" x2="370" y1="361.7691453623979" y2="327.1281292110204" /><line stroke="rgb(0%,0%,0%)" x1="370" x2="390.0" y1="327.1281292110204" y2="292.48711305964287" /><circle cx="530" cy="327.1281292110204" r="3" /><line stroke="rgb(0%,0%,0%)" x1="490" x2="510.0" y1="327.1281292110204" y2="292.48711305964287" /><line stroke="rgb(0%,0%,0%)" x1="550.0" x2="570" y1="292.48711305964287" y2="327.1281292110204" /><circle cx="650" cy="327.1281292110204" r="3" /><line stroke="rgb(0%,0%,0%)" x1="630.0" x2="610" y1="361.7691453623979" y2="327.1281292110204" /><line stroke="rgb(0%,0%,0%)" x1="670.0" x2="690" y1="292.48711305964287" y2="327.1281292110204" /><circle cx="110.0" cy="361.7691453623979" r="3" /><line stroke="rgb(0%,0%,0%)" x1="150.0" x2="130.0" y1="361.7691453623979" y2="396.41016151377545" /><line stroke="rgb(0%,0%,0%)" x1="90.0" x2="130.0" y1="327.1281292110204" y2="327.1281292110204" /><circle cx="230.0" cy="361.7691453623979" r="3" /><line stroke="rgb(0%,0%,0%)" x1="250.0" x2="210.0" y1="396.41016151377545" y2="396.41016151377545" /><line stroke="rgb(0%,0%,0%)" x1="190.0" x2="210.0" y1="361.7691453623979" y2="327.1281292110204" /><line stroke="rgb(0%,0%,0%)" x1="250.0" x2="270.0" y1="327.1281292110204" y2="361.7691453623979" /><circle cx="350.0" cy="361.7691453623979" r="3" /><line stroke="rgb(0%,0%,0%)" x1="310.0" x2="330.0" y1="361.7691453623979" y2="327.1281292110204" /><line stroke="rgb(0%,0%,0%)" x1="370.0" x2="390.0" y1="327.1281292110204" y2="361.7691453623979" /><circle cx="470.0" cy="361.7691453623979" r="3" /><line stroke="rgb(0%,0%,0%)" x1="510.0" x2="490.0" y1="361.7691453623979" y2="396.41016151377545" /><line stroke="rgb(0%,0%,0%)" x1="490.0" x2="450.0" y1="396.41016151377545" y2="396.41016151377545" /><circle cx="590.0" cy="361.7691453623979" r="3" /><line stroke="rgb(0%,0%,0%)" x1="570.0" x2="550.0" y1="396.41016151377545" y2="361.7691453623979" /><line stroke="rgb(0%,0%,0%)" x1="610.0" x2="630.0" y1="327.1281292110204" y2="361.7691453623979" /><circle cx="710.0" cy="361.7691453623979" r="3" /><line stroke="rgb(0%,0%,0%)" x1="750.0" x2="730.0" y1="361.7691453623979" y2="396.41016151377545" /><line stroke="rgb(0%,0%,0%)" x1="730.0" x2="690.0" y1="396.41016151377545" y2="396.41016151377545" /><line stroke="rgb(0%,0%,0%)" x1="690.0" x2="670.0" y1="396.41016151377545" y2="361.7691453623979" /><line stroke="rgb(0%,0%,0%)" x1="730.0" x2="750.0" y1="327.1281292110204" y2="361.7691453623979" /><circle cx="50" cy="396.4101615137755" r="3" /><line stroke="rgb(0%,0%,0%)" x1="90" x2="70.0" y1="396.4101615137755" y2="431.05117766515303" /><line stroke="rgb(0%,0%,0%)" x1="70.0" x2="30.0" y1="431.05117766515303" y2="431.05117766515303" /><line stroke="rgb(0%,0%,0%)" x1="30.0" x2="10" y1="431.05117766515303" y2="396.4101615137755" /><line stroke="rgb(0%,0%,0%)" x1="10" x2="30.0" y1="396.4101615137755" y2="361.769145362398" /><line stroke="rgb(0%,0%,0%)" x1="30.0" x2="70.0" y1="361.769145362398" y2="361.769145362398" /><circle cx="170" cy="396.4101615137755" r="3" /><line stroke="rgb(0%,0%,0%)" x1="210" x2="190.0" y1="396.4101615137755" y2="431.05117766515303" /><line stroke="rgb(0%,0%,0%)" x1="190.0" x2="150.0" y1="431.05117766515303" y2="431.05117766515303" /><line stroke="rgb(0%,0%,0%)" x1="150.0" x2="130" y1="431.05117766515303" y2="396.4101615137755" /><line stroke="rgb(0%,0%,0%)" x1="130" x2="150.0" y1="396.4101615137755" y2="361.769145362398" /><circle cx="290" cy="396.4101615137755" r="3" /><line stroke="rgb(0%,0%,0%)" x1="330" x2="310.0" y1="396.4101615137755" y2="431.05117766515303" /><line stroke="rgb(0%,0%,0%)" x1="310.0" x2="270.0" y1="431.05117766515303" y2="431.05117766515303" /><circle cx="410" cy="396.4101615137755" r="3" /><line stroke="rgb(0%,0%,0%)" x1="450" x2="430.0" y1="396.4101615137755" y2="431.05117766515303" /><line stroke="rgb(0%,0%,0%)" x1="430.0" x2="390.0" y1="431.05117766515303" y2="431.05117766515303" /><line stroke="rgb(0%,0%,0%)" x1="390.0" x2="370" y1="431.05117766515303" y2="396.4101615137755" /><circle cx="530" cy="396.4101615137755" r="3" /><line stroke="rgb(0%,0%,0%)" x1="570" x2="550.0" y1="396.4101615137755" y2="431.05117766515303" /><line stroke="rgb(0%,0%,0%)" x1="550.0" x2="510.0" y1="431.05117766515303" y2="431.05117766515303" /><line stroke="rgb(0%,0%,0%)" x1="490" x2="510.0" y1="396.4101615137755" y2="361.769145362398" /><line stroke="rgb(0%,0%,0%)" x1="550.0" x2="570" y1="361.769145362398" y2="396.4101615137755" /><circle cx="650" cy="396.4101615137755" r="3" /><line stroke="rgb(0%,0%,0%)" x1="670.0" x2="630.0" y1="431.05117766515303" y2="431.05117766515303" /><line stroke="rgb(0%,0%,0%)" x1="630.0" x2="610" y1="431.05117766515303" y2="396.4101615137755" /><line stroke="rgb(0%,0%,0%)" x1="670.0" x2="690" y1="361.769145362398" y2="396.4101615137755" /><circle cx="110.0" cy="431.05117766515303" r="3" /><line stroke="rgb(0%,0%,0%)" x1="150.0" x2="130.0" y1="431.05117766515303" y2="465.69219381653056" /><line stroke="rgb(0%,0%,0%)" x1="130.0" x2="90.0" y1="465.69219381653056" y2="465.69219381653056" /><line stroke="rgb(0%,0%,0%)" x1="90.0" x2="70.0" y1="465.69219381653056" y2="431.05117766515303" /><line stroke="rgb(0%,0%,0%)" x1="70.0" x2="90.0" y1="431.05117766515303" y2="396.4101615137755" /><line stroke="rgb(0%,0%,0%)" x1="130.0" x2="150.0" y1="396.4101615137755" y2="431.05117766515303" /><circle cx="230.0" cy="431.05117766515303" r="3" /><line stroke="rgb(0%,0%,0%)" x1="270.0" x2="250.0" y1="431.05117766515303" y2="465.69219381653056" /><line stroke="rgb(0%,0%,0%)" x1="250.0" x2="210.0" y1="465.69219381653056" y2="465.69219381653056" /><line stroke="rgb(0%,0%,0%)" x1="210.0" x2="190.0" y1="465.69219381653056" y2="431.05117766515303" /><line stroke="rgb(0%,0%,0%)" x1="190.0" x2="210.0" y1="431.05117766515303" y2="396.4101615137755" /><line stroke="rgb(0%,0%,0%)" x1="210.0" x2="250.0" y1="396.4101615137755" y2="396.4101615137755" /><circle cx="350.0" cy="431.05117766515303" r="3" /><line stroke="rgb(0%,0%,0%)" x1="390.0" x2="370.0" y1="431.05117766515303" y2="465.69219381653056" /><line stroke="rgb(0%,0%,0%)" x1="370.0" x2="330.0" y1="465.69219381653056" y2="465.69219381653056" /><line stroke="rgb(0%,0%,0%)" x1="330.0" x2="310.0" y1="465.69219381653056" y2="431.05117766515303" /><line stroke="rgb(0%,0%,0%)" x1="310.0" x2="330.0" y1="431.05117766515303" y2="396.4101615137755" /><line stroke="rgb(0%,0%,0%)" x1="370.0" x2="390.0" y1="396.4101615137755" y2="431.05117766515303" /><circle cx="470.0" cy="431.05117766515303" r="3" /><line stroke="rgb(0%,0%,0%)" x1="510.0" x2="490.0" y1="431.05117766515303" y2="465.69219381653056" /><line stroke="rgb(0%,0%,0%)" x1="490.0" x2="450.0" y1="465.69219381653056" y2="465.69219381653056" /><line stroke="rgb(0%,0%,0%)" x1="450.0" x2="430.0" y1="465.69219381653056" y2="431.05117766515303" /><line stroke="rgb(0%,0%,0%)" x1="430.0" x2="450.0" y1="431.05117766515303" y2="396.4101615137755" /><line stroke="rgb(0%,0%,0%)" x1="450.0" x2="490.0" y1="396.4101615137755" y2="396.4101615137755" /><circle cx="590.0" cy="431.05117766515303" r="3" /><line stroke="rgb(0%,0%,0%)" x1="630.0" x2="610.0" y1="431.05117766515303" y2="465.69219381653056" /><line stroke="rgb(0%,0%,0%)" x1="610.0" x2="570.0" y1="465.69219381653056" y2="465.69219381653056" /><line stroke="rgb(0%,0%,0%)" x1="570.0" x2="550.0" y1="465.69219381653056" y2="431.05117766515303" /><line stroke="rgb(0%,0%,0%)" x1="550.0" x2="570.0" y1="431.05117766515303" y2="396.4101615137755" /><line stroke="rgb(0%,0%,0%)" x1="610.0" x2="630.0" y1="396.4101615137755" y2="431.05117766515303" /><circle cx="710.0" cy="431.05117766515303" r="3" /><line stroke="rgb(0%,0%,0%)" x1="750.0" x2="730.0" y1="431.05117766515303" y2="465.69219381653056" /><line stroke="rgb(0%,0%,0%)" x1="750.0" x2="730.0" y1="431.05117766515303" y2="465.69219381653056" /><line stroke="rgb(0%,0%,0%)" x1="730.0" x2="690.0" y1="465.69219381653056" y2="465.69219381653056" /><line stroke="rgb(0%,0%,0%)" x1="690.0" x2="670.0" y1="465.69219381653056" y2="431.05117766515303" /><line stroke="rgb(0%,0%,0%)" x1="690.0" x2="730.0" y1="396.4101615137755" y2="396.4101615137755" /><line stroke="rgb(0%,0%,0%)" x1="730.0" x2="750.0" y1="396.4101615137755" y2="431.05117766515303" /></svg>